<svg xmlns="http://www.w3.org/2000/svg" width="761" height="718"><path fill="#F95127" d="M703.594 97.703 705 99v2l3 1v2l3 1v2l3 1v2l3 1c12.155 14.28 15.373 32.855 14 51-1.553 12.722-6.705 25.105-15 35h-2l-1 3h-2l-1 3h-2l-1 3c-1.89 1.754-1.89 1.754-4.25 3.563l-2.328 1.816c-2.452 1.641-4.65 2.628-7.422 3.621l-3.27 1.219A760 760 0 0 1 679 220l-2.129.77c-3.277 1.019-6.49 1.32-9.91 1.343l-2.215.017A493 493 0 0 1 655 222l-1 4h-2l-1 5h-2l-.266 2.637c-.836 3.828-2.22 5.996-4.484 9.176A153 153 0 0 0 635 258q-1.37 2.47-2.75 4.938c-1.12 2.008-2.222 4.006-3.25 6.062h-2l-1 5h-2l-1 5h-2l-.75 3.188c-1.03 3.657-2.798 5.9-5.25 8.812-1.24 2.68-1.24 2.68-2 5h-2l-.312 2.188c-.756 3.09-1.843 5.23-3.688 7.812h-2l-1 5h-2l-1 5h-2l-1 5h-2l-1 5h-2l-.348 1.723c-.72 2.514-1.772 4.459-3.09 6.714-1.445 2.521-2.677 4.854-3.75 7.563-.812 2-.812 2-2.812 3a70 70 0 0 0-2.5 4.313l-1.281 2.363c-1.1 2.096-2.17 4.202-3.219 6.324h-2l-.344 1.71c-.736 2.57-1.824 4.6-3.156 6.915l-1.344 2.352L568 371l-1 2h-2l-.28 2.1c-.879 3.538-2.394 6.155-4.247 9.295l-1.058 1.794a760 760 0 0 1-2.217 3.724 738 738 0 0 0-3.384 5.733q-1.075 1.813-2.154 3.624l-1.98 3.33L548 405h-2l-1 5h-2l-1 5h-2l-.312 2.75c-.712 3.365-1.638 4.603-3.688 7.25-.714 2.65-.714 2.65-1 5h-2l-1 3 2.23.82c2.65 1.129 4.738 2.4 7.082 4.055a78 78 0 0 0 10.493 6.047c4.48 2.2 8.825 4.668 13.195 7.078v2l2.063.25c3.812.973 6.578 2.708 9.937 4.75v2l2.137.277c3.418.863 5.742 2.342 8.676 4.286l2.957 1.94L593 468c-.454 5.36-1.615 8.526-4.75 12.875-3.43 4.903-6.432 9.854-9.25 15.125-1.687 3.063-1.687 3.063-3 5h-2l-1 5h-2l-1 5h-2l-1 4h-2l-.437 2.313C564 520 564 520 563 523h-5v-2l-9-3v-2l-1.562-.25c-3.483-1.071-6.31-2.885-9.438-4.75v-2l-2.152-.32c-3.175-.758-5.566-1.964-8.41-3.555l-2.817-1.555C522 502 522 502 519.867 500.395c-2.186-1.633-4.508-2.556-7.02-3.59-4.679-2.038-8.852-4.793-13.034-7.68-5.326-3.606-11.026-6.345-16.813-9.125a924 924 0 0 1-4-2v-2h-3v-2l-2.75-.25c-3.808-.879-4.582-2.003-7.25-4.75-2.595-1.491-5.288-2.74-8-4a705 705 0 0 1-4-2v-2l-2.25-.375c-2.599-.59-4.514-1.188-6.75-2.625-1-3-1-3-.004-5.262l1.442-2.425 1.433-2.45L449 446h2l.313-2.125c.78-3.266 2.108-5.922 3.687-8.875h2l1-5h2l.813-2.625c1.158-3.293 2.57-6.286 4.187-9.375h2l1-5h2l1-5h2l.25-2.125c.925-3.545 2.654-5.89 4.75-8.875a86 86 0 0 0 2-4h2l.313-2.215c.751-3.046 1.857-4.819 3.687-7.348 2.059-2.855 3.245-5.01 4-8.437l3-3a134 134 0 0 0 3-6h2l.813-2.75c1.094-2.995 2.295-4.756 4.187-7.25v-3l4-1-1-3 1.372-1.263c1.668-1.78 2.606-3.347 3.671-5.53l1.064-2.158 1.08-2.236 1.116-2.272q1.355-2.767 2.697-5.541h2l.438-2.375C520 325 520 325 521 323h2l.309-1.64c.869-2.966 2.246-5.415 3.754-8.11l1.66-2.984L530 308h2l1-5h2l1-5h2l1-5h2l.32-2.169c.752-3.13 1.921-5.36 3.551-8.132l1.74-2.959 1.827-3.053 1.814-3.11 1.744-2.94 1.6-2.697L555 266h2l1-5h2l1-5h2l.172-1.957c1.204-4.423 3.624-7.89 6.078-11.73 3.938-6.287 7.674-12.548 10.75-19.313h2l.875-2.75c.89-2.572 1.84-4.863 3.125-7.25h2l.688-2.5c1.561-4.165 3.54-8 6.312-11.5h2l.328-2.187c.926-3.875 2.885-6.909 4.906-10.313 1.097-2.532 1.097-2.532-.453-4.82L600 179c-5.184-15.584-7.011-36.846.005-52.2 1.15-2.16 2.361-4.264 3.62-6.362l1.273-2.19A607 607 0 0 1 608 113h2l1-4h2l1-3h2l1-3h2l1-3c24.375-19.07 58.139-19.963 83.594-2.297M645 128v2h-3c-2.99 3.615-2.99 3.615-4 8h-2c-3.71 7.42-4.381 15.848-3 24 1.558 4.023 3.501 7.49 6 11h2l1 3h2v2c5.551 4.72 12.14 7.08 19.395 6.96 4.204-.376 7.75-1.189 11.605-2.96l3.188-.812c3.024-.902 3.024-.902 3.937-3.688L683 175l1.875-.875c3.352-1.774 4.692-4.755 6.125-8.125.859-2.973 1.457-5.956 2-9l.64-2.379c.455-3.314-.194-5.719-1.077-8.934l-.872-3.238L691 140h-2l-1-6-3-1-1-3h-2v-2c-13.045-6.608-24.25-8.315-37 0M274 415c4.5 1.688 8.724 3.824 13 6q2 1.002 4 2v2l2.063.25c4.81 1.228 8.705 3.901 12.75 6.688 4.218 2.73 8.665 4.882 13.187 7.062v2l2.074.23c3.747.986 6.579 2.93 9.738 5.082 4.938 3.275 9.8 6.194 15.188 8.688q2.003.994 4 2v2l2.078.23c3.732.983 6.532 2.928 9.672 5.082 5.25 3.5 10.361 6.353 16.25 8.688v2l2.055.219c3.857 1.023 6.811 3.065 10.07 5.281 4.691 3.213 4.691 3.213 9.875 5.5v2l2.25.375c2.551.58 4.477 1.362 6.75 2.625v2l1.563.254c3.43 1.05 6.366 2.869 9.437 4.683 5.416 3.186 5.416 3.186 11 6.063v2l2.25.375c2.551.58 4.477 1.362 6.75 2.625v2l1.574.266c3.35 1.014 6.232 2.732 9.238 4.484l1.901 1.095c3.159 1.84 6.227 3.726 9.162 5.905 2.915 2.099 5.688 3.559 8.906 5.094 2.605 1.357 5.012 2.922 7.469 4.531 3.607 2.336 7.186 4.398 11.063 6.25 7.039 3.41 13.675 7.462 20.384 11.475a373 373 0 0 0 20.21 11.216c3.169 1.725 6.094 3.68 9.093 5.684 1.774.95 3.565 1.87 5.375 2.75l2.648 1.297L549 572v2l2.516-1.797c14.494-9.59 33.485-10.632 50.193-7.733 10.56 2.422 20.159 7.346 28.291 14.53v2l3 1v2l1.875.875C637 586 637 586 639 588v3l3 1a68 68 0 0 1 3.5 6.375l1.781 3.523c4.069 9.16 5.248 17.95 5.157 27.914l-.02 3.459c-.216 11.715-2.664 21.454-8.418 31.729h-2l-.312 2.313c-.735 2.871-1.36 3.917-3.688 5.687h-2l-1 4h-2v2h-3l-.75 1.938C628 683 628 683 625.938 683.563L624 684l-1 3a87 87 0 0 1-7.25 3.625l-2.027.945C607.67 694.33 602.7 695.131 596 695v2c-3.5.088-7 .14-10.5.188l-2.977.076c-6.294.063-10.768-.717-16.523-3.264l-3.562-1c-6.137-1.785-11.246-4.291-16.438-8l-2.152-1.52c-4.302-3.107-4.302-3.107-5.848-4.48v-2h-2c-4-4.353-4-4.353-4-8l-3-1c-7.095-10.973-11.175-24.379-10.937-37.437.228-2.732.228-2.732-2.063-4.563l-2.375-.937C511 624 511 624 509.125 622.563c-2.22-1.761-2.22-1.761-5.562-3-3.414-1.498-5.689-3.248-8.563-5.563h-3l-1-2-3-1v-2l-2.062-.187c-3.418-.946-5.45-2.502-8.243-4.618-2.098-1.48-4.314-2.255-6.695-3.195l-2.219-1.844c-3.075-2.384-6.142-3.929-9.656-5.593-3.841-1.855-7.575-3.682-11-6.25-2.374-1.757-4.267-2.947-6.875-4.188-4.48-2.135-8.545-4.827-12.707-7.52-2.767-1.746-5.577-3.226-8.543-4.605l-6-3v-2l-2.148-.281c-3.368-.85-5.6-2.285-8.477-4.219-2.85-1.905-5.118-3.414-8.375-4.5v-2l-3 1v-2c-1.97-.99-3.943-1.973-5.93-2.93-4.27-2.074-8.115-4.434-12.07-7.07a186 186 0 0 0-3.937-1.937 49 49 0 0 1-7.875-4.75c-2.992-2.415-2.992-2.415-6.188-3.313v-2l-2.687-.812c-3.104-1.113-5.624-2.29-8.313-4.188v-2l-2.187-.352c-6.187-1.426-12.628-5.019-17.813-8.648v-2l-3.437-.812L318 512l-1-3-2.125-.312c-3.266-.782-5.922-2.109-8.875-3.688v-2l-8-1-.875 2.438C296 507 296 507 294 508l-1 3h-2l-.75 2c-2.814 6.754-6.369 13.045-10.125 19.313-4.232 7.123-8.418 14.273-12.125 21.687h-2l-1 4h-2l-1 5c-2.82-.613-5.138-1.472-7.672-2.848l-2.012-1.084-2.066-1.13-2.113-1.143Q245.565 555.403 243 554v-2l-2.172-.828c-7.432-3.08-14.277-7.333-20.902-11.863-2.255-1.533-4.583-2.916-6.926-4.309a742 742 0 0 1-6-4c1.254-6.52 5.183-12.055 8.598-17.633A83 83 0 0 0 219 507h2l.309-2.137c.79-3.274 2.096-5.749 3.754-8.675l1.66-2.958L228 491h2l1-5h2l1-5h2l.191-1.95c1.167-4.399 3.423-7.975 5.746-11.863l1.381-2.388 1.334-2.256 1.219-2.062L247 459h2l.313-2.187c.755-3.09 1.842-5.23 3.687-7.813h2l1-5h2l1-5h2l1-5h2l.777-2.605c1.27-3.527 2.867-6.491 4.786-9.707l1.878-3.176C273 416 273 416 274 415m289.05 194.2c-6.329 9.06-8.27 17.11-6.487 28.112 1.405 5.825 4.604 11.121 8.437 15.688h3v2q1.904.972 3.813 1.938l2.144 1.09c4.3 2.046 8.186 2.188 12.856 2.222l2.119.063c8.67.064 14.913-4.613 21.068-10.313 2.452-3.19 4-5.878 4-10h2c.784-6.565 1.11-12.468 0-19h-2l-1-6-3-1v-3h-2l-.437-2.25c-2.732-4.807-7.776-5.917-12.875-7.441-11.174-2.774-23.567-1.215-31.637 7.89M178.375 8.688c1.1.005 2.198.01 3.33.017C198.776 8.96 211.59 14.35 225 25c4 4.286 4 4.286 4 7l3 1v3l3 1v3h2c6.358 12.017 8.899 23.217 9.25 36.75.12 3.359.12 3.359.75 6.25 2.715 2.32 3.823 2.923 7 4q2.21 1.146 4.375 2.375l2.316 1.277c2.287 1.335 4.445 2.778 6.622 4.285 4.43 3.018 9.088 5.35 13.902 7.692 3.36 1.654 6.553 3.48 9.785 5.371l3.938 2.125c5.327 2.936 10.441 6.211 15.566 9.485l2.02 1.28 1.81 1.158c1.82 1.112 1.82 1.112 4.666 1.952v2l2.25.375c2.551.58 4.477 1.362 6.75 2.625v2l1.688.336c2.693.773 4.863 1.926 7.312 3.289l2.938 1.633a980 980 0 0 1 12.105 7.031 293 293 0 0 0 8.27 4.586c6.36 3.44 12.529 7.184 18.712 10.93 3.32 2.01 6.648 4.009 9.975 6.007l1.813 1.094c5.453 3.277 10.911 6.537 16.625 9.344L411 177v2l1.683.336c2.71.777 4.92 1.937 7.395 3.289l2.996 1.629L426.25 186l3.256 1.777a1679 1679 0 0 1 22.178 12.344c4.091 2.318 8.2 4.604 12.316 6.879 2.248-2.052 3.002-3.007 4-6h2l1-5h2l1-5h2l.875-2.25A82 82 0 0 1 480 182h2l.336-2.223c.696-2.912 1.668-4.714 3.289-7.214 3.923-6.295 7.131-12.902 10.375-19.563h2l.313-1.687c.818-2.755 2.146-4.9 3.687-7.313 5.281.515 8.572 2.255 13 5v2l1.688.375c2.533.685 4.891 1.616 7.312 2.625v2l1.621.27c3.184.977 5.635 2.627 8.442 4.417 6.98 4.395 14.077 8.516 21.562 12C558 174 558 174 559 177c-.996 2.48-.996 2.48-2.437 5.188l-1.434 2.73L554 187h-2l-1 5h-2l-1 5h-2l-1 5h-2l-1 5h-2l-1 5h-2l-.298 2.143c-.816 3.32-2.156 5.653-3.94 8.568l-1.987 3.273-2.087 3.391q-2.027 3.324-4.051 6.648l-1.917 3.136A339 339 0 0 0 517 249h-2l-1 5h-2l-1 5h-2l-.348 2.232c-.663 2.815-1.552 4.621-3.086 7.053l-1.466 2.358-1.538 2.42q-1.5 2.391-2.996 4.785l-1.345 2.125c-1.184 1.966-2.224 3.96-3.221 6.027h-2l-1 5-4 1v-2l-5-1v-2l-1.625-.375c-8.212-2.161-8.212-2.161-11.375-5.625l-3-1v-2l-2.937-.375L461 277l-1-2c-1.641-1.023-1.641-1.023-3.625-1.937l-2.164-1.043A269 269 0 0 0 445 268v-2l-4-1v-2l-2.062-.25c-3.723-.95-6.68-2.791-9.938-4.75a621 621 0 0 0-4.75-2.687l-2.234-1.262c-2.124-1.175-2.124-1.175-5.016-2.051v-2c-2.444-1.271-4.892-2.373-7.437-3.437-3.074-1.349-5.72-2.803-8.563-4.563-2.99-1.685-5.994-3.343-9-5v-2l-2.207-.332c-2.966-.71-4.91-1.736-7.48-3.356l-2.63-1.628L377 228c-5.886-3.613-11.774-7.01-18-10q-2.001-.997-4-2v-2l-1.676-.328c-2.764-.8-5-2.016-7.512-3.422l-2.945-1.64L340 207l-2.367-1.297c-4.798-2.63-9.49-5.408-14.172-8.238a234 234 0 0 0-6.836-3.903c-7.717-4.249-15.32-8.635-22.625-13.562-3.59-2.147-7.228-4.19-11-6v-2c-.661-.07-1.323-.14-2.004-.21-4.12-1.086-7.328-3.188-10.933-5.415-7.514-4.54-15.145-8.585-23.063-12.375v-2l-2.062-.25c-3.813-.973-6.579-2.708-9.938-4.75v-2l-2.137-.309c-3.274-.79-5.749-2.096-8.675-3.754l-2.958-1.66L219 138v-2h-4v-2c-3.12.966-5.974 1.986-8.875 3.5-6.903 3.314-14.744 4.584-22.375 4.438-2.887.065-4.256.726-6.75 2.062l-2-1v-2l-3.25.688c-8.448 1.063-17.03-2.57-24.75-5.688v-2l-1.703-.316c-2.72-.81-4.69-2.046-7.047-3.621l-2.422-1.59L134 127v-2h-3v-3l-3-1v-2l-3-1v-3h-2c-2.742-3.349-4.862-6.67-5.312-11l.312-2-3-1c-1.178-2.944-1.033-3.9 0-7h-2c-1.822-7.992-2.159-15.336-1.687-23.5l.146-3.242c.388-7.799.388-7.799 1.541-11.258h2l1-9h2l.125-2c1.097-3.76 3.058-6.116 5.5-9.133C125.19 33.942 125.19 33.942 126 31c1.438-1.687 1.438-1.687 3-3h2l1-3h2l1-3c2.398-1.86 2.398-1.86 5.375-3.75l2.96-1.922C146 15 146 15 149 16l1-3c8.666-4.312 18.903-4.363 28.375-4.312M154 57c-.782 2.139-.782 2.139-1 4h-2l-1 7h-2v14h2l1 7h2l.254 2.277c1.35 4.925 5.603 7.086 9.746 9.723 6.793 3.729 13.293 5.109 21 4 6.47-1.89 13.586-4.703 18-10l1-3 2-1c4.229-9.428 4.117-19.179.855-28.84-1.564-3.951-3.467-7.525-6.855-10.16-3.1-1.2-3.1-1.2-6-2v-2c-15.371-4.827-27.84-4.015-39 9M204 183l20 10v2l2.875.625c4.423 1.237 8.039 3.589 11.89 6.035 2.275 1.474 2.275 1.474 5.235 2.34v2l1.688.375c2.533.685 4.891 1.616 7.312 2.625v2l1.68.332c2.736.788 4.955 1.973 7.445 3.356l2.95 1.636c2.648 1.518 5.259 3.082 7.863 4.676 4.63 2.817 9.412 5.224 14.277 7.61 3.346 1.67 6.566 3.488 9.785 5.39v2c.713.095 1.426.19 2.16.29 3.303.826 5.458 2.19 8.277 4.085 3.778 2.486 7.457 4.738 11.563 6.625.125 5.75.125 5.75-1 8h-2l-1 5h-2l-.323 2.18c-.741 3.087-1.877 5.23-3.513 7.945l-1.726 2.89-1.813 2.985-1.79 2.984q-2.41 4.012-4.835 8.016l-1.569 2.82L296 292h-2l-1 5h-2l-1 5h-2l-1 5h-2l-.297 2.137c-.82 3.337-2.18 5.735-3.953 8.676L278.84 321a756 756 0 0 1-5.707 9.176c-1.797 2.894-3.463 5.855-5.133 8.824h-2l-1 5h-2l-1 4h-2l-.125 2.375c-1.255 5.2-4.047 9.128-6.875 13.625a862 862 0 0 0-3.687 6.25l-1.7 2.89c-1.64 2.909-3.145 5.862-4.613 8.86h-2l-1 5h-2l-1 5h-2l-1 5h-2l-1 5h-2l-.32 2.169c-.752 3.13-1.921 5.36-3.551 8.132l-1.74 2.959-1.827 3.053-1.814 3.11-1.744 2.94-1.6 2.697L215 429h-2l-.312 2.188c-.756 3.09-1.843 5.23-3.688 7.812h-2l-1 5h-2l-1 5h-2c-.1.708-.199 1.415-.3 2.145-.808 3.297-2.132 5.64-3.887 8.543l-1.915 3.19L193 466l-3.062 5.125-1.458 2.406a343 343 0 0 0-3.117 5.313l-1.613 2.781c-.48.838-.96 1.676-1.453 2.54L181 486h-2l-1 5h-2l-1 5h-2l-.285 2.117c-.855 3.447-2.321 5.97-4.153 9.008l-1.87 3.133A193 193 0 0 1 163 516c.228 3.882 1.014 7.225 2.438 10.813 5.519 13.955 6.076 33.2.562 47.187-2.111 4.785-4.482 9.416-7 14l-1.594 2.91L156 593h-2l-1 3h-2l-1 3h-2l-1 3h-2l-.672 1.809c-1.747 2.883-3.593 3.724-6.578 5.254l-2.988 1.542L132 612l-3.437 1.875C126 615 126 615 122 615l-1 2a91 91 0 0 1-7.5 1.125l-2.226.249c-2.09.223-4.181.427-6.274.626l-2.535.266C90.359 619.919 74.443 614.455 65 607v-2h-3v-2l-2.437-.75L57 601c-.625-2.062-.625-2.062-1-4l-3-1c-1.754-1.707-1.754-1.707-3.562-3.812l-1.817-2.083c-1.527-1.983-2.578-3.839-3.621-6.105l-1.5-2.75c-1.212-2.625-1.925-4.727-2.562-7.5-.597-3.752-.597-3.752-2.938-5.75l1-1-.937-3.062c-4.432-17.083 1.365-34.718 9.464-49.778L48 512h2l1-4h2l1-3c1.438-1.687 1.438-1.687 3-3h2v-2a82 82 0 0 1 5.813-4.375l1.781-1.227C71.77 490.951 76.997 488.658 83 487l3.73-1.059c4.57-1.126 9.08-1.383 13.77-1.566l2.492-.117q3.003-.138 6.008-.258l1-2h2l1-5h2l1-5h2l1-5h2l.238-2.047c.987-3.824 2.884-6.884 4.95-10.203l1.222-2.003a266 266 0 0 1 8.496-13.013c1.267-1.856 1.267-1.856 2.094-4.734h2l1-5h2l1-5h2l1-5h2l.813-2.625c1.158-3.293 2.57-6.286 4.187-9.375h2l.313-1.625c.868-3 2.243-5.613 3.687-8.375h2l1-5h2l1-5h2l1-5h2l1-5h2l.805-2.105c1.301-3.152 2.782-6.165 4.32-9.207l1.633-3.239L182 361h2l1-5h2l1-5h2l1-5h2l.344-1.746c.717-2.464 1.742-4.183 3.156-6.317 1.58-2.394 2.582-4.183 3.5-6.937h2l1-5h2l.219-2.02c1.057-4.034 3.08-7.155 5.281-10.668l2.469-4.011L215 306l1-2h2l.313-2.187c.755-3.09 1.842-5.23 3.687-7.813h2l.313-2.187c.755-3.09 1.842-5.23 3.687-7.813h2l1-5h2v-6l-3.562-1.75c-3.9-1.947-7.673-4.054-11.438-6.25v-2l-1.812-.437c-1.75-.45-3.475-.992-5.188-1.563v-2l-2.062-.25c-2.998-.765-5.316-1.976-7.958-3.562-2.278-1.366-4.593-2.653-6.917-3.938l-2.34-1.297L190 249v-2l-2.187-.312c-3.06-.748-5.155-2.036-7.813-3.688h-2c-2.187-1.437-2.187-1.437-4-4-.048-3.076.408-5.987 1-9h2l.813-2.625c1.158-3.293 2.57-6.286 4.187-9.375h2l2-7h2v-3h2l.875-3.312C192 201 192 201 194 198h2l1-6h2l1-4h2l.438-1.937C203 184 203 184 204 183M84 527v2l-3 1v2l-3 1v3h-2c-3.238 7.96-4.769 16.279-2.168 24.691A71 71 0 0 0 77 567l.848 1.992c3.164 5.513 9.78 9.82 15.652 12.008 9.048 2.433 16.172 1.003 24.5-3l2.148-1.008c2.426-1.3 4.048-2.93 5.852-4.992v-2h2c5.182-9.027 6.376-18.78 4-29-1.645-3.618-3.684-6.778-6-10l-1.191-1.816c-3.783-5.26-9.331-7.14-15.309-8.934-9.965-.997-17.483.537-25.5 6.75M359 274c4.57.487 7.99 1.194 11.938 3.563l2.34 1.378c.568.35 1.136.7 1.722 1.059v2l2.207.332c2.966.71 4.91 1.736 7.48 3.356l2.61 1.617L390 289q2.715 1.665 5.438 3.313l2.433 1.488c2.202 1.329 2.202 1.329 5.129 2.199v2l2.25.375c2.551.58 4.477 1.362 6.75 2.625v2l1.648.297c2.984.892 5.316 2.338 7.977 3.953 3.796 2.265 7.578 4.398 11.563 6.313 4.237 2.057 8.054 4.493 11.902 7.203 1.993 1.4 1.993 1.4 4.91 2.234v2l2.168.309c3.177.775 5.38 2.02 8.144 3.753l2.676 1.66L465 332l-1 5h-2l-1 5h-2l-1 5h-2l-.266 2.113c-.902 3.55-2.494 6.004-4.484 9.075A148 148 0 0 0 442 375h-2l-1 5h-2l-.375 2.313C436 385 436 385 434 388l-1 2h-2l-1 5h-2l-1 5h-2l-.28 2.1c-.879 3.538-2.394 6.155-4.247 9.295l-1.058 1.794a760 760 0 0 1-2.217 3.724 738 738 0 0 0-3.384 5.733q-1.076 1.813-2.154 3.624l-1.98 3.33L408 432h-2v3h-5v-2l-2.25-.375c-2.551-.58-4.477-1.362-6.75-2.625v-2l-2.375-.437C387 427 387 427 385 426v-2l-2.062-.25c-3.813-.973-6.579-2.708-9.938-4.75v-2l-2.227-.36c-5.728-1.323-10.722-4.79-15.398-8.265-3.276-2.432-6.577-3.902-10.375-5.375v-2l-2.062-.25c-3.813-.973-6.579-2.708-9.938-4.75v-2l-2.062-.25c-3.813-.973-6.579-2.708-9.938-4.75v-2l-1.73-.36c-6.742-1.902-12.72-6.507-18.27-10.64a85 85 0 0 1 2-7h2l1-5h2l.75-3.375C310 357 310 357 312.063 355.875L314 355l.39-2.105c.785-3.728 2.476-6.78 4.298-10.082l1.082-1.998a294 294 0 0 1 8.003-13.764c1.182-1.976 2.226-3.979 3.227-6.051h2l1-5h2l1-5h2l1-5h2l1-5h2l.316-2.169c.761-3.152 1.955-5.358 3.625-8.132l1.768-2.959 1.853-3.053 1.866-3.11q2.276-3.794 4.572-7.577"/><path fill="#F95127" d="M356 65c5.707.243 8.924 1.957 13.496 5.332 2.706 1.803 5.475 3.192 8.392 4.617 3.396 1.69 6.688 3.557 9.987 5.426l2.116 1.193a371 371 0 0 1 11.259 6.62c4.535 2.76 9.237 5.102 14 7.44 3.339 1.666 6.53 3.488 9.75 5.372a2110 2110 0 0 0 9 5v2l2.25.375c2.551.58 4.477 1.362 6.75 2.625v2l1.703.344c2.609.745 4.678 1.832 7.047 3.156l2.918 1.625L458 120l3.926 2.188c6.791 3.792 13.542 7.62 20.156 11.718 2.027 1.239 2.027 1.239 4.918 2.094v2l2.25.375c2.551.58 4.477 1.362 6.75 2.625l-1 6h-2l-1 5h-2l-1 5h-2l-1 6h-2l-.805 2.105c-1.301 3.152-2.782 6.165-4.32 9.208l-1.633 3.238L476 180h-2l-1 5h-2l-1 6h-2l-1 4h-2l-1 4c-4.389-.665-7.981-2.188-12-4v-2l-1.598-.277c-3.25-.978-5.904-2.583-8.84-4.286l-1.843-1.064c-5.428-3.156-10.762-6.46-16.074-9.807-2.612-1.673-2.612-1.673-5.645-2.566v-2l-2.812-.312c-3.483-.752-3.89-1.205-6.188-3.688-3.522-2.245-7.236-4.193-11-6v-2l-2.312-.437C393 160 393 160 390 159v-2l-2.437-.687c-3.749-1.381-6.982-3.158-10.438-5.137-2.308-1.277-4.64-2.294-7.125-3.176v-2l-1.562-.25c-4.251-1.308-7.924-3.819-11.692-6.137-5.533-3.383-11.165-6.372-16.98-9.242C334.03 127.528 329.35 124.746 325 120l2-1c.656-2.527.656-2.527 1-5h2l.32-2.191c.741-3.06 1.872-5.096 3.555-7.746 2.252-3.622 4.3-7.211 6.125-11.063h2l.3-2.148c.806-3.285 2.127-5.593 3.887-8.477 3.43-5.712 6.66-11.507 9.813-17.375M299 509c4.242-.364 6.582.46 10 3v2l1.755.368c2.326.655 4.077 1.533 6.16 2.75l2.279 1.323 2.431 1.434 2.531 1.477c6.62 3.88 13.152 7.895 19.68 11.927 4.537 2.783 9.094 5.376 13.926 7.623 8.28 4.06 16.135 9.124 24.082 13.79 7.936 4.642 15.906 9.24 24.156 13.308v2l2.008.2c4.145 1.109 7.297 3.28 10.867 5.612q2.058 1.325 4.117 2.645l2.01 1.292c2.948 1.846 5.964 3.552 8.998 5.251l-1 6h-2l-1 5h-2l-1 5h-2l-.297 2.172c-.805 3.238-2.095 5.315-3.953 8.078-3.566 5.423-6.847 10.943-9.75 16.75h-2l-1 5h-2l-1 5h-2v3c-5.707-.466-9.16-1.938-14-5v-2l-2.375-.437C384 633 384 633 382 632v-2l-2.437-.687c-4.476-1.65-8.45-3.918-12.563-6.313v-2l-2.187-.25c-3.389-.903-5.098-2.565-7.813-4.75-3.18-1.256-3.18-1.256-6-2v-2l-3-.625c-4.077-1.137-6.8-3.366-10.066-5.977-2.483-1.795-4.977-2.659-7.934-3.398v-2l-2.137-.805c-3.019-1.26-5.815-2.735-8.675-4.32l-2.958-1.633L314 592v-2h-3v-2l-1.734-.371c-2.366-.657-4.338-1.566-6.516-2.692l-2.14-1.097L299 583v-2l-1.625-.312c-3-.869-5.613-2.244-8.375-3.688v-2l-2.062-.187c-3.362-.93-5.293-2.393-8.028-4.485-2.604-1.81-5.39-3.016-8.308-4.238C269 565 269 565 268.094 563.164c-.132-3.032 1.004-4.306 2.781-6.726 1.87-2.579 3.11-4.394 4.125-7.438h2l1-5h2l1-5h2l1-4h2l1-5h2l.32-2.191c.741-3.06 1.872-5.096 3.555-7.746 2.252-3.622 4.3-7.211 6.125-11.063M619 296c5.299 1.298 9.345 3.15 14 6v2l2.168.293c3.265.815 5.362 2.139 8.144 4.02 3.849 2.532 7.647 4.748 11.797 6.73 2.714 1.374 5.234 3.014 7.793 4.652 3.616 2.25 7.359 4.27 11.098 6.305 0 4.164-.613 5.664-2.5 9.25l-1.406 2.703L669 340h-2l-1 5h-2l-1 5h-2l-1 5h-2l-1 5h-2l-.875 2.188L651 370h-2l-.75 3.188c-1.05 3.689-2.82 5.826-5.25 8.812-1.348 2.508-2.59 5.057-3.836 7.617-1.255 2.569-2.523 5.038-4.164 7.383h-2l-1 5h-2l-1 5h-2l-1 5h-2l-1 5h-2l-.187 2.063c-.889 3.212-2.406 5.26-4.403 7.89-2.592 3.763-4.46 7.924-6.41 12.047h-2l-.312 1.688c-.83 2.789-2.031 4.926-3.688 7.312h-2l-1 6h-2l-1 4h-2v3c-3 1-3 1-5.125-.062a1967 1967 0 0 1-4.988-3.372c-4.197-2.828-8.284-5.425-12.887-7.566l-4-2v-2l-2.062-.25c-6.271-1.601-11.49-5.774-16.786-9.36-2.615-1.69-5.341-3.055-8.152-4.39-1-1-1-1-1.23-3.3.268-3.144 1.05-4.38 2.918-6.887 3.33-4.7 5.858-9.613 8.312-14.813h2l.875-2.75c.89-2.572 1.84-4.863 3.125-7.25h2l1-4h2l1-6h2l.688-2.5c1.353-3.61 3.069-6.475 5.19-9.668 1.284-1.942 1.284-1.942 2.122-4.832h2l1-5h2l.832-2.18c3.308-7.987 8.01-15.308 12.75-22.507 1.55-2.333 1.55-2.333 2.418-5.313h2l1-5h2l.32-2.169c.752-3.13 1.921-5.36 3.551-8.132l1.74-2.959 1.827-3.053 1.814-3.11 1.744-2.94 1.6-2.697L614 303h2l1-5h2zM176 246c2.022.954 4.028 1.945 6 3v2l2 .188c3.56.964 6.088 2.618 9.133 4.656 1.968 1.318 1.968 1.318 4.867 2.156v2l2.063.25c3.812.973 6.578 2.708 9.937 4.75v2l2.063.188c3.415.944 5.493 2.489 8.289 4.601 1.79 1.315 3.615 2.317 5.648 3.211-.875 5.75-.875 5.75-2 8h-2l-1 5h-2l-1 5h-2l-.312 2.188c-.756 3.09-1.843 5.23-3.688 7.812h-2l-1 5h-2l-1 5h-2l-1 5h-2l-.687 3.063c-1.028 3.61-2.692 6.085-4.946 9.046-3.095 4.28-5.613 8.985-7.554 13.891-.813 2-.813 2-2.813 3l-1 3h-2l-.348 1.742c-.714 2.473-1.714 4.209-3.09 6.383-3.005 4.88-5.798 9.856-8.562 14.875-3.115 5.64-6.256 11.248-9.625 16.742a243 243 0 0 0-3 5.078l-1.625 2.805-1.453 2.54L153 402h-2l-1 5h-2v2c-3.368-.647-5.789-1.939-8.687-3.75-4.7-2.89-9.471-5.607-14.313-8.25v-2l-1.812-.437c-1.75-.45-3.475-.992-5.188-1.563v-2h-3v-2l-1.734-.371c-2.366-.657-4.338-1.566-6.516-2.692l-2.14-1.097L103 384v-2l-1.687-.312c-2.755-.82-4.9-2.147-7.313-3.688.62-4.233 2.105-7.523 4.063-11.312l1.66-3.239L101 361h2l1-5h2l.824-2.207c1.134-2.692 2.44-5.009 3.989-7.48 3.038-4.965 5.666-10.07 8.187-15.313h2l.266-2.11c.905-3.561 2.499-6.05 4.484-9.14A271 271 0 0 0 135 304q1.373-2.47 2.75-4.937c1.12-2.009 2.222-4.007 3.25-6.063h2l1-5h2l1-5h2l.188-2.062c.89-3.22 2.416-5.272 4.414-7.91 2.113-3.064 3.644-6.374 5.27-9.716 1.241-2.544 2.502-4.99 4.128-7.312h2l1-5h2l.375-2.437L169 246c2.761-1.38 4.039-.808 7 0"/><path fill="#F35C3B" d="M206 14c4.794 1.354 8.59 3.46 12.625 6.313l1.695 1.146c3.532 2.461 6.241 4.99 8.68 8.541v2l3 1v3l3 1v3h2c6.358 12.017 8.899 23.217 9.25 36.75.12 3.359.12 3.359.75 6.25 2.715 2.32 3.823 2.923 7 4q2.21 1.146 4.375 2.375l2.316 1.277c2.287 1.335 4.445 2.778 6.622 4.285 4.43 3.018 9.088 5.35 13.902 7.692 3.36 1.654 6.553 3.48 9.785 5.371l3.938 2.125c5.327 2.936 10.441 6.211 15.566 9.485l2.02 1.28 1.81 1.158c1.82 1.112 1.82 1.112 4.666 1.952v2l2.25.375c2.551.58 4.477 1.362 6.75 2.625v2l1.688.336c8.904 2.557 17.388 8.96 25.312 13.664l2.535 1.484c1.858 1.114 3.668 2.307 5.465 3.516v2c-3.798-1.409-7.151-3.171-10.625-5.25a419 419 0 0 0-14.43-8.133c-4.125-2.265-8.198-4.619-12.263-6.99-2.547-1.473-4.88-2.693-7.682-3.627v-2l-1.668-.324c-2.807-.814-5.093-2.063-7.644-3.489l-2.938-1.636L303 119l-2.062-1.145c-2.63-1.473-5.152-3.004-7.625-4.73-2.864-1.837-5.63-3.28-8.688-4.75-5.92-2.89-11.417-6.27-16.93-9.86-4.11-2.648-8.147-4.709-12.695-6.515v-2l-2.062-.187c-4.06-1.123-7.196-2.53-9.938-5.813-.803-3.658-.525-7.16-.25-10.875.405-6.92.596-11.822-2.75-18.125l-1.57-3.387q-1.56-3.313-3.125-6.625C234.27 42.62 233.503 40.52 233 38h-2l-1-4h-2l-.312-1.937L227 30l-3-1v-2l-3-1v-2h-3v-2h-3v-2h-3v-2l-1.875-.437C208 17 208 17 206 16z"/><path fill="#F35B3A" d="M326 196c7.693 4.005 15.287 8.098 22.688 12.625 5.453 3.332 10.989 6.312 16.738 9.113 4.901 2.403 9.453 5.166 13.949 8.262 4.321 2.93 8.79 5.057 13.625 7v2l1.703.344c2.609.745 4.678 1.832 7.047 3.156l2.906 1.617L408 242l4.031 2.258c5.243 2.94 10.48 5.887 15.696 8.875 2.453 1.4 4.915 2.77 7.398 4.117 5.137 2.834 10.09 5.956 15.055 9.078 2.755 1.768 2.755 1.768 5.82 2.672v2l2.063.25c3.812.973 6.578 2.708 9.937 4.75v2l2.137.309c3.274.79 5.749 2.096 8.676 3.753l2.957 1.66L484 285v2c2.742 1.028 2.742 1.028 6 1 2.135-1.793 3.39-3.678 5-6l1 3-3 1-1 5-4 1v-2l-5-1v-2l-1.625-.375c-8.212-2.161-8.212-2.161-11.375-5.625l-3-1v-2l-2.937-.375L461 277l-1-2c-1.641-1.023-1.641-1.023-3.625-1.937l-2.164-1.043A269 269 0 0 0 445 268v-2l-4-1v-2l-2.062-.25c-3.723-.95-6.68-2.791-9.938-4.75a621 621 0 0 0-4.75-2.687l-2.234-1.262c-2.124-1.175-2.124-1.175-5.016-2.051v-2c-2.444-1.271-4.892-2.373-7.437-3.437-3.074-1.349-5.72-2.803-8.563-4.563-2.99-1.685-5.994-3.343-9-5v-2l-2.207-.332c-2.966-.71-4.91-1.736-7.48-3.356l-2.63-1.628L377 228c-5.886-3.613-11.774-7.01-18-10q-2.001-.997-4-2v-2l-1.676-.328c-2.764-.8-5-2.016-7.512-3.422l-2.933-1.633L340 207l-4.75-2.625A964 964 0 0 1 324 198z"/><path fill="#F35B39" d="M274 415c4.5 1.688 8.724 3.824 13 6q2 1.002 4 2v2l2.063.25c4.81 1.228 8.705 3.901 12.75 6.688 4.218 2.73 8.665 4.882 13.187 7.062v2l2.074.23c3.747.986 6.579 2.93 9.738 5.082 4.938 3.275 9.8 6.194 15.188 8.688q2.003.994 4 2v2l2.078.23c3.732.983 6.532 2.928 9.672 5.082 5.25 3.5 10.361 6.353 16.25 8.688v2l2.055.219c3.857 1.023 6.811 3.065 10.07 5.281 4.691 3.213 4.691 3.213 9.875 5.5v2l2.25.375c2.551.58 4.477 1.362 6.75 2.625v2l1.55.258c3.477 1.053 6.5 2.825 9.637 4.617l1.944 1.066c4.749 2.698 4.749 2.698 5.869 6.059-4.1-1.507-7.73-3.487-11.5-5.687a406 406 0 0 0-14.062-7.813c-5.553-2.965-10.899-6.19-16.239-9.52-7.206-4.46-14.565-8.647-21.988-12.734-3.29-1.854-6.51-3.822-9.742-5.777-3.018-1.795-6.086-3.485-9.164-5.172-3.434-1.932-6.786-3.996-10.14-6.063-2.229-1.364-2.229-1.364-5.165-2.234v-2l-1.668-.324c-2.807-.814-5.093-2.063-7.644-3.488l-2.739-1.52c-5.824-3.294-11.6-6.641-17.324-10.106-4.85-2.923-9.717-5.791-14.691-8.5-1.98-1.088-3.925-2.228-5.872-3.375-2.771-1.848-2.771-1.848-5.062-1.687l-4 7h-3c1.45-4.11 3.511-7.433 6-11"/><path fill="#F35C3A" d="m271 559 1 3-1 2 1.621.281c3.137.948 5.64 2.525 8.442 4.219 4.306 2.601 4.306 2.601 8.937 4.5v2l1.625.313c3 .868 5.613 2.243 8.375 3.687v2l1.734.371c2.366.657 4.338 1.566 6.516 2.692l2.14 1.097 1.61.84v2l1.684.336c7.909 2.267 15.199 7.766 22.003 12.246 2.333 1.55 2.333 1.55 5.313 2.418v2h3v2l2.063.25c5.092 1.3 9.197 4.167 13.375 7.25 3.04 2.225 6.168 3.896 9.562 5.52 3.087 1.513 6.03 3.248 9 4.98v2l2.059.215c4.534 1.21 8.05 3.99 11.857 6.635 3.415 2.3 4.846 3.15 9.084 3.15 2.155-2.597 2.155-2.597 4.063-5.875 3.656-5.938 3.656-5.938 6.937-8.125l-1 5h-2l-1 5h-2l-1 5h-2v3c-5.707-.466-9.16-1.938-14-5v-2l-2.375-.437C384 633 384 633 382 632v-2l-2.437-.687c-4.476-1.65-8.45-3.918-12.563-6.313v-2l-2.187-.25c-3.389-.903-5.098-2.565-7.813-4.75-3.18-1.256-3.18-1.256-6-2v-2l-3-.625c-4.077-1.137-6.8-3.366-10.066-5.977-2.483-1.795-4.977-2.659-7.934-3.398v-2l-2.137-.805c-3.019-1.26-5.815-2.735-8.675-4.32l-2.958-1.633L314 592v-2h-3v-2l-1.734-.371c-2.366-.657-4.338-1.566-6.516-2.692l-2.14-1.097L299 583v-2l-1.625-.312c-3-.869-5.613-2.244-8.375-3.688v-2l-2.062-.187c-3.362-.93-5.293-2.393-8.028-4.485-2.604-1.81-5.39-3.016-8.308-4.238C269 565 269 565 268.273 562.879L268 561z"/><path fill="#F35D3C" d="M356 65c5.707.243 8.924 1.957 13.496 5.332 2.706 1.803 5.475 3.192 8.392 4.617 3.396 1.69 6.688 3.557 9.987 5.426l2.116 1.193a371 371 0 0 1 11.259 6.62c4.535 2.76 9.237 5.102 14 7.44 3.339 1.666 6.53 3.488 9.75 5.372a2110 2110 0 0 0 9 5v2l2.25.375c2.551.58 4.477 1.362 6.75 2.625v2l1.703.344c2.609.745 4.678 1.832 7.047 3.156l2.918 1.625L458 120l3.926 2.188c6.791 3.792 13.542 7.62 20.156 11.718 2.027 1.239 2.027 1.239 4.918 2.094v2l2.25.375c2.551.58 4.477 1.362 6.75 2.625l-1 6h-3l1-5-1.812-.437c-1.75-.45-3.475-.992-5.188-1.563l-1-2a136 136 0 0 0-6.437-3.25 167 167 0 0 1-15.063-8.281c-2.815-1.654-5.694-3.095-8.625-4.531-4.109-2.016-7.976-4.167-11.812-6.653-3.397-2.116-6.932-3.974-10.454-5.87-2.16-1.172-4.296-2.37-6.421-3.603-3.017-1.715-6.07-3.291-9.188-4.812v-2l-1.68-.332c-2.736-.788-4.955-1.973-7.445-3.356l-2.95-1.636A313 313 0 0 1 397.063 89c-4.638-2.821-9.428-5.232-14.3-7.621-2.26-1.128-4.454-2.3-6.637-3.567-2.989-1.733-6.02-3.298-9.125-4.812v-2l-2.312-.375C362 70 362 70 359 68l-1.172 1.898-1.578 2.477c-.51.812-1.02 1.624-1.547 2.46-1.77 2.25-3.072 3.124-5.703 4.165z"/><path fill="#F35C3B" d="M209 186c5.48 1.545 10.114 4.155 15 7v2l2.875.625c4.423 1.237 8.039 3.589 11.89 6.035 2.275 1.474 2.275 1.474 5.235 2.34v2l1.688.375c2.533.685 4.891 1.616 7.312 2.625v2l1.68.332c2.736.788 4.955 1.973 7.445 3.356l2.95 1.636c2.648 1.518 5.259 3.082 7.863 4.676 4.63 2.817 9.412 5.224 14.277 7.61 3.346 1.67 6.566 3.488 9.785 5.39v2c.713.095 1.426.19 2.16.29 3.303.826 5.458 2.19 8.277 4.085 3.778 2.486 7.457 4.738 11.563 6.625.125 5.75.125 5.75-1 8h-2l-1 5h-2l-.323 2.169c-1.245 5.206-4.34 9.575-7.052 14.144-.59 1.026-1.18 2.053-1.79 3.11l-1.733 2.94-1.584 2.697L299 287h-3c1.199-3.083 2.477-6.063 4-9h2l1-5h2l1-5h2l1-5h2l1-5h2l1-5h2v-4l-1.61-.805L305 243v-2l-2.137-.309c-3.274-.79-5.749-2.096-8.675-3.754l-2.958-1.66L289 234v-2l-2.25-.375c-2.551-.58-4.477-1.362-6.75-2.625v-2l-2.168-.293c-3.265-.815-5.362-2.139-8.144-4.02A111 111 0 0 0 256 215a943 943 0 0 1-4-2v-2l-2.137-.309c-3.274-.79-5.749-2.096-8.675-3.754l-2.958-1.66L236 204v-2l-2.062-.25c-3.71-.947-6.672-2.821-9.938-4.75l-1.972-1.139a810 810 0 0 1-5.965-3.486l-2.073-1.195c-1.697-1.004-3.349-2.086-4.99-3.18z"/><path fill="#F35A39" d="M703.594 97.703 705 99v2l3 1v2l3 1v2l3 1v2l3 1c3.592 4.444 6.902 9.694 9 15-.312 2.375-.312 2.375-1 4l-1.125-1.937c-2.094-3.421-4.365-6.694-6.668-9.977C716 116 716 116 716 113l-3-1a263 263 0 0 1-4-5l-3-2v-2l-3-1v-2h-3v-2l-2.187-.312C695 97 695 97 692.746 95.62c-13.875-8.19-30.334-9.377-45.696-5.522-5.507 1.544-10.52 3.77-15.534 6.534-2.453 1.333-4.907 2.381-7.516 3.367v2c-3.462 3-3.462 3-6 3l-.812 1.75c-1.217 2.306-2.491 4.27-4.188 6.25h-2l-1 4h-2v3l-2 1-1.437 3.375c-1.319 3.059-2.054 4.594-4.563 6.625 0-6.108 4.545-13.064 8-18h2l1-4h2l1-3h2l1-3h2l1-3c24.375-19.07 58.139-19.963 83.594-2.297"/><path fill="#F35C3B" d="M397 555c3.844 1.281 7.399 3.157 11 5v2l2.375.625c3.969 1.505 7.244 3.501 10.84 5.73 2.928 1.73 5.912 3.225 8.973 4.707 4 1.96 7.554 4.022 11.093 6.711 4.566 3.259 9.7 5.746 14.719 8.227v2l2.148.3c3.285.806 5.593 2.127 8.477 3.888 5.712 3.43 11.507 6.658 17.375 9.812v2l2.063.25c5.34 1.363 9.64 4.536 14.125 7.625 4.492 3.05 9.213 5.406 14.113 7.73 5.007 2.587 5.007 2.587 6.699 4.395.39 3.355.39 3.355.25 7.188l-.11 3.855L521 640h-3l.07-2.555.055-3.32.07-3.305c.106-2.957.106-2.957-2.195-4.82l-2.375-.937C511 624 511 624 509.125 622.563c-2.22-1.761-2.22-1.761-5.562-3-3.414-1.498-5.689-3.248-8.563-5.563h-3l-1-2-3-1v-2l-2.062-.187c-3.418-.946-5.45-2.502-8.243-4.618-2.098-1.48-4.314-2.255-6.695-3.195l-2.219-1.844c-3.075-2.384-6.142-3.929-9.656-5.593-3.841-1.855-7.575-3.682-11-6.25-2.374-1.757-4.267-2.947-6.875-4.188-4.48-2.135-8.545-4.827-12.707-7.52-2.767-1.746-5.577-3.226-8.543-4.605l-6-3v-2l-2.148-.285c-3.352-.84-5.601-2.247-8.477-4.153l-2.852-1.87L398 558l-3-2z"/><path fill="#F35A38" d="m539 416 1 3a374 374 0 0 1-4 6c-.782 2.728-.782 2.728-1 5h-2l-1 3 2.23.82c2.65 1.129 4.738 2.4 7.082 4.055a78 78 0 0 0 10.493 6.047c4.48 2.2 8.825 4.668 13.195 7.078v2l2.063.25c3.812.973 6.578 2.708 9.937 4.75v2l2.137.277c3.418.863 5.742 2.342 8.676 4.286l2.957 1.94L593 468c-.454 5.36-1.615 8.526-4.75 12.875-3.43 4.903-6.432 9.854-9.25 15.125-1.687 3.063-1.687 3.063-3 5h-2l-1 5h-2l-1 5h-3v-2h2l.25-2.062c.973-3.813 2.708-6.579 4.75-9.938h2l.25-2.187c.912-3.42 2.521-5.075 4.75-7.813a99 99 0 0 0 1.938-3.875 47.6 47.6 0 0 1 4.75-7.937c2.414-2.992 2.414-2.992 3.312-6.188l-2.555-.738c-3.826-1.402-7.13-3.307-10.57-5.45l-3.988-2.437-1.987-1.219c-2.716-1.652-5.462-3.25-8.212-4.844a706 706 0 0 1-10.875-6.437c-3.786-2.282-7.622-4.446-11.497-6.574-4.162-2.338-8.237-4.823-12.316-7.301l1-6h2l1-5h2l.313-2.375C536 418 536 418 539 416"/><path fill="#F35B39" d="M604 602c2.34 1.512 2.34 1.512 4 3v2h2c5.734 5.543 8.497 14.7 9.105 22.54-.302 7.046-1.824 14.737-6.105 20.46h-3l4-10h2l-.562-2.125c-.49-3.222.018-5.68.562-8.875a140 140 0 0 0-1-4c.438-2.25.438-2.25 1-4h-2l-.875-2.937c-.767-3.17-.767-3.17-3.125-4.063v-3h-2l-.375-2.312c-2.287-3.782-4.865-3.988-9.02-5.012C596 603 596 603 593.512 601.934c-6.59-2.45-14.042-1.234-20.512 1.066 1-3 1-3 3.184-4.164 9.36-2.778 19.108-.811 27.816 3.164m-45 42c3.08 2.773 4.688 5.063 6 9h3v2l2.688.875C574 657 574 657 576.21 658.051c3.59 1.222 6.978 1.279 10.726 1.261l2.092.05c6.613.006 11.013-2.2 15.846-6.55l1.805-1.605L608 650l2 1a135 135 0 0 1-2.5 3.25l-1.406 1.828c-5.638 5.175-11.54 6.604-19.032 6.422l-2.395-.032c-5.94-.194-10.623-1.194-15.667-4.468l-1.863-1.086c-1.7-1.039-1.7-1.039-4.137-2.914v-2h-2a101 101 0 0 1-3-6z"/><path fill="#F35B3A" d="M302 376c4.448.417 7.295 2.339 10.93 4.723 2.907 1.793 5.897 3.021 9.07 4.277v2l2.625.813c3.293 1.158 6.286 2.57 9.375 4.187v2l1.734.371c2.366.657 4.338 1.566 6.516 2.692l2.14 1.097 1.61.84v2l1.777.398c6.809 1.843 12.703 6.146 18.551 9.934 2.88 1.798 5.807 3.32 8.863 4.79 5.301 2.575 10.249 5.769 15.247 8.878 4.757 2.945 9.502 5.619 14.562 8l.313-2.187c.755-3.09 1.842-5.23 3.687-7.813h2l1-5h2l1-3h2c-1.486 4.004-3.369 7.614-5.5 11.313l-1.844 3.238L408 432h-2v3h-5v-2l-2.25-.375c-2.551-.58-4.477-1.362-6.75-2.625v-2l-2.375-.437C387 427 387 427 385 426v-2l-2.062-.25c-3.813-.973-6.579-2.708-9.938-4.75v-2l-2.227-.36c-5.728-1.323-10.722-4.79-15.398-8.265-3.276-2.432-6.577-3.902-10.375-5.375v-2l-2.062-.25c-3.813-.973-6.579-2.708-9.938-4.75v-2l-2.062-.25c-3.813-.973-6.579-2.708-9.938-4.75v-2l-1.727-.355c-6.207-1.76-12.063-5.904-17.273-9.645z"/><path fill="#F35E3D" d="M346 535a3383 3383 0 0 1 6.563 3.25l1.845.91c4.287 2.132 8.46 4.422 12.592 6.84l2.621 1.531q6.114 3.576 12.223 7.16C389.78 559.334 397.75 563.932 406 568v2l2.008.2c4.145 1.109 7.297 3.28 10.867 5.612q2.058 1.325 4.117 2.645l2.01 1.292c2.948 1.846 5.964 3.552 8.998 5.251l-1 6h-2l-1 5h-2l-1 5h-2l-.293 2.16c-.818 3.286-2.153 5.46-4.02 8.278l-1.898 2.89L417 617l-1.352 2.047A500 500 0 0 1 413 623l-2-1c1.457-2.968 3.012-5.864 4.625-8.75l1.352-2.422L418 609h2l1-5h2l.348-1.719c.722-2.527 1.777-4.506 3.09-6.781 1.605-2.8 3.145-5.6 4.562-8.5q-4.154-2.495-8.312-4.98L419 579.813l-1.983-1.187a895 895 0 0 1-15.92-9.802 102 102 0 0 0-6.89-3.719c-4.65-2.285-9.11-4.866-13.582-7.48l-2.55-1.484c-4.86-2.833-9.714-5.677-14.52-8.602a485 485 0 0 0-6.485-3.828l-2.096-1.23a566 566 0 0 0-4.15-2.411c-1.642-.968-3.238-2.013-4.824-3.07z"/><path fill="#F35B3A" d="M359 274c4.57.487 7.99 1.194 11.938 3.563l2.34 1.378c.568.35 1.136.7 1.722 1.059v2l2.207.332c2.966.71 4.91 1.736 7.48 3.356l2.61 1.617L390 289q2.715 1.665 5.438 3.313l2.433 1.488c2.202 1.329 2.202 1.329 5.129 2.199v2l2.25.375c2.551.58 4.477 1.362 6.75 2.625v2l1.648.297c2.984.892 5.316 2.338 7.977 3.953 3.796 2.265 7.578 4.398 11.563 6.313 4.237 2.057 8.054 4.493 11.902 7.203 1.993 1.4 1.993 1.4 4.91 2.234v2l2 .188c4.187 1.133 7.426 3.408 11 5.812-1.605.71-1.605.71-4 1-2.926-1.336-2.926-1.336-6.312-3.375l-1.845-1.095A680 680 0 0 1 445 324l-3.867-2.328a3751 3751 0 0 1-5.72-3.444c-7.947-4.782-16.087-9.144-24.413-13.228v-2l-1.625-.312c-4.437-1.285-8.262-3.586-12.125-6.063-4.568-2.913-9.374-5.277-14.25-7.625v-2l-1.762-.387c-2.203-.603-4.02-1.388-6.05-2.425l-2.094-1.067c-2.004-1.073-3.954-2.209-5.906-3.371-3.02-1.99-3.02-1.99-6.188-1.75a159 159 0 0 0-3 5h-2v3l-2 1-.312 1.875c-.993 3.069-2.91 3.7-5.688 5.125 1.64-4.64 4.069-8.639 6.625-12.812l1.273-2.1q1.546-2.546 3.102-5.088"/><path fill="#F35C3A" d="M451 445c1 3 1 3 .004 5.043l-1.442 2.144-1.433 2.168L447 456l2.438.625c3.856 1.488 6.762 3.46 10.14 5.8 2.411 1.568 4.831 2.832 7.422 4.075 4.313 2.072 8.18 4.513 12.09 7.266 1.993 1.4 1.993 1.4 4.91 2.234v2l2.063.25c3.73.953 6.686 2.761 9.937 4.75l2.355 1.387c4.985 2.944 9.818 6.045 14.602 9.304 2.211 1.478 2.211 1.478 5.48 2.934 2.792 1.498 3.546 2.426 4.563 5.375l-2.062-1.312c-2.949-1.771-2.949-1.771-6.313-3.125-5.339-2.302-10.047-5.15-14.812-8.438-5.326-3.606-11.026-6.345-16.813-9.125a924 924 0 0 1-4-2v-2h-3v-2l-2.75-.25c-3.808-.879-4.582-2.003-7.25-4.75-2.595-1.491-5.288-2.74-8-4a705 705 0 0 1-4-2v-2l-2.25-.375c-2.599-.59-4.514-1.188-6.75-2.625-1-3-1-3-.074-5.227l1.387-2.398 1.363-2.414C449 446 449 446 451 445"/><path fill="#F45F3E" d="M619 296c5.299 1.298 9.345 3.15 14 6v2l2.168.293c3.265.815 5.362 2.139 8.144 4.02 3.849 2.532 7.647 4.748 11.797 6.73 2.714 1.374 5.234 3.014 7.793 4.652 3.616 2.25 7.359 4.27 11.098 6.305v4h-2v-3l-2.55-.734c-3.856-1.415-7.175-3.351-10.638-5.516q-1.996-1.224-3.996-2.441l-1.968-1.2c-4.2-2.52-8.528-4.805-12.848-7.109-10.823-5.796-10.823-5.796-14.5-8.375-2.422-1.897-2.422-1.897-5.5-1.625l-1 2h-2l-.25 2.125c-.93 3.565-2.517 5.965-4.75 8.875h-2v4l-4 4c-1.795 2.933-3.41 5.951-5 9-1-3-1-3 .14-5.544l1.755-2.999 1.896-3.252 2.021-3.392 1.987-3.428c3.646-6.19 3.646-6.19 5.201-8.385h2l1-5h2zm-21 34 2 1-2 5-3-1h2z"/><path fill="#F35B39" d="M41 576c3.589 1.422 4.797 2.889 6.5 6.313 1.86 3.582 3.938 6.556 6.5 9.687v2l3 1 .375 1.938L58 599c2.343 1.12 2.343 1.12 5 2 2.313 1.5 2.313 1.5 4 3v2h3v2l2.063.313C75 609 75 609 78 610.375c12.983 5.584 26.142 4.971 40 4.625l1 2c-18.183 3.192-35.508 1.972-51.625-8.125L65 607v-2h-3v-2l-2.437-.75L57 601c-.625-2.062-.625-2.062-1-4l-3-1c-1.754-1.707-1.754-1.707-3.562-3.812l-1.817-2.083c-1.53-1.986-2.58-3.835-3.621-6.105l-1.625-3.125C41 578 41 578 41 576"/><path fill="#F35B3A" d="M176 246c2.022.954 4.028 1.945 6 3v2l2 .188c3.56.964 6.088 2.618 9.133 4.656 1.968 1.318 1.968 1.318 4.867 2.156v2l2.063.25c3.812.973 6.578 2.708 9.937 4.75v2l2.063.188c3.415.944 5.493 2.489 8.289 4.601 1.79 1.315 3.615 2.317 5.648 3.211-.75 5.75-.75 5.75-3 8l-1-4h2v-3l-2.062-.187c-3.213-.889-5.26-2.406-7.891-4.403-3.763-2.592-7.924-4.46-12.047-6.41v-2l-2.062-.25c-4.766-1.217-8.635-3.84-12.625-6.625-4.888-3.135-10.094-5.592-15.313-8.125l-.946 1.62c-1.424 2.425-2.864 4.84-4.304 7.255l-1.488 2.55-1.465 2.442-1.333 2.254c-1.634 2.097-3.024 2.887-5.464 3.879 1.566-4.308 3.683-8.062 6-12h2l1-5h2l.375-2.437L169 246c2.761-1.38 4.039-.808 7 0"/><path fill="#F35D3C" d="m548 417 1 3c-2.333 4.667-2.333 4.667-5 6-.652 2.025-.652 2.025-1 4l2.508.695c4.194 1.567 7.634 3.741 11.367 6.18 4.626 3.004 9.23 5.755 14.194 8.166 3.055 1.518 5.984 3.241 8.931 4.959q1.872 1.072 3.746 2.14L594 458l1.023-1.715 1.352-2.223 1.336-2.214C599 450 599 450 601 449l1-2c1-2 1-2 3-3l-1 4h-2l-1 6h-2l-1 4h-2v3c-3 1-3 1-5.125-.062a1967 1967 0 0 1-4.988-3.372c-4.197-2.828-8.284-5.425-12.887-7.566l-4-2v-2l-2.062-.25c-6.271-1.601-11.49-5.774-16.786-9.36-2.615-1.69-5.341-3.055-8.152-4.39-1-1-1-1-1.375-3.062.55-4.31 2.745-7.527 5.375-10.938z"/><path fill="#F35E3D" d="M485 537c4.69 1.698 8.915 4.066 13.25 6.5l2.378 1.327a720 720 0 0 1 18.537 10.773 153 153 0 0 0 12.081 6.498c1.754.902 1.754.902 4.629 2.84 4.182 2.76 8.617 4.888 13.125 7.062v2l2.313-1.75c4.446-2.968 9.521-4.928 14.687-6.25l3 1a676 676 0 0 1-8.187 4.563c-.77.437-1.538.875-2.33 1.326-5.767 3.142-5.767 3.142-9.327 2.986-2.807-1.14-5.485-2.446-8.156-3.875v-2l-2.43-.687c-4.518-1.662-8.523-3.93-12.695-6.313l-4.758-2.687-2.106-1.2A137 137 0 0 0 513 556v-2l-2.375-.625c-3.946-1.497-7.237-3.434-10.812-5.652-4.113-2.52-8.33-4.854-12.54-7.207L485 539z"/><path fill="#F35836" d="M150 62c1 3 1 3 0 6h-2v14h2l1 7h2l1 5 3 1v2l2.063.75c2.328.99 4.336 2.03 6.5 3.313 5.968 3.363 11.668 3.609 18.437 2.937 3.49-1.04 6.706-2.46 10-4a448 448 0 0 1 5-2l-2 4h-3v2c-8.392 3.414-17.526 4.84-26.312 1.813-4.075-1.825-8.206-4.007-11.688-6.813v-2l-3-1c-1.168-1.707-1.168-1.707-2.187-3.812l-1.043-2.083C149 88 149 88 149 84h-2V66h2zm57 19 2 3c-.875 3.688-.875 3.688-2 7h-2c.458-3.47.891-6.674 2-10m-4 10 2 1c-.75 2.438-.75 2.438-2 5-2.125.813-2.125.813-4 1l1-3h2z"/><path fill="#F35A39" d="M135 550c.452 7.01-.354 12.854-4 19l-3 1c2-6 2-6 3.125-8.937.991-3.47 1.019-6.472.875-10.063 2-1 2-1 3-1m-62 8c2.35 3.524 4.62 7.05 5.438 11.25.393 1.908.393 1.908 2.25 2.688L83 573l2.688 2.438c5.635 4.773 12.5 6.133 19.753 5.93 3.72-.535 6.925-1.847 10.332-3.395C118 577 118 577 120.227 576.559c.585-.185 1.17-.37 1.773-.559l1-3 2 1-2 4h-3v2c-9.745 3.81-18.234 6.046-28.312 2.25C87.82 580.51 84.33 578.63 81 576v-2l-3-1c-1.64-2.11-1.64-2.11-3.25-4.75l-1.64-2.61c-1.288-3.064-1.077-4.514-.11-7.64m53 12 2 1-2 1z"/><path fill="#F35B39" d="M174 237c8.394 3.148 16.17 7.682 24 12v2l2.063.25c3.708.947 6.678 2.81 9.937 4.75l1.78 1.058q2.707 1.621 5.407 3.255c6.57 3.956 13.176 7.844 19.813 11.687a85 85 0 0 1-2 7h-2v-6l-3.562-1.75c-3.9-1.947-7.673-4.054-11.438-6.25v-2l-1.812-.437c-1.75-.45-3.475-.992-5.188-1.563v-2l-2.062-.25c-2.998-.765-5.316-1.976-7.958-3.562-2.278-1.366-4.593-2.653-6.917-3.938l-2.34-1.297L190 249v-2l-2.187-.312c-3.06-.748-5.155-2.036-7.813-3.688h-2c-2.125-1.875-2.125-1.875-4-4zm57 42 2 1-3 2z"/><path fill="#F4603F" d="m115 95 2 1v4h2l1 6h2l1 5h2c4 5.412 4 5.412 4 8l3 1v2l1.715.777c3.384 1.811 6.191 4.253 9.164 6.664 2.13 1.732 2.13 1.732 5.121 2.559v2l2.313.25c5.102 1.038 9.833 2.893 14.687 4.75l-1 2c-5.929-1.167-11.388-2.755-17-5v-2l-1.703-.316c-2.72-.81-4.69-2.046-7.047-3.621l-2.422-1.59L134 127v-2h-3v-3l-3-1v-2l-3-1v-3h-2c-2.742-3.349-4.862-6.67-5.312-11l.312-2-3-1c-.75-1.937-.75-1.937-1-4z"/><path fill="#F45F3E" d="m262 437 1 3-3 1-1 5h-2l-.293 2.13c-.833 3.38-2.221 5.81-4.016 8.792l-2.013 3.355-1.052 1.726a714 714 0 0 0-3.167 5.267c-5.194 8.597-5.194 8.597-7.459 9.73a101 101 0 0 0-2 6h-2v3h-2l1-5h2l.191-1.95c1.167-4.399 3.423-7.975 5.746-11.863l1.381-2.388 1.334-2.256 1.219-2.062L247 459h2l.313-2.187c.755-3.09 1.842-5.23 3.687-7.813h2l1-5h2l.313-2.375C259 439 259 439 262 437m-31 49 2 1-1 4h-2zm-3 5 2 1c-.25 1.875-.25 1.875-1 4-2.062 1.25-2.062 1.25-4 2 1.875-4.75 1.875-4.75 3-7"/><path fill="#F35C3B" d="M610 568c5.476 1.284 9.389 3.23 13.938 6.5l1.783 1.223c1.469 1.034 2.88 2.15 4.279 3.277v2l3 1v2l1.875.875C637 586 637 586 639 588v3l3 1c5.087 8.104 8.197 16.622 10 26h-2v-4h-2l-1-9h-2l-1-6-3-1c-1.903-3.057-3.573-6.013-5-9.312-1.306-2.205-2.698-2.642-5-3.688-1.75-1.5-1.75-1.5-3-3v-2l-2.187-.75C623 578 623 578 620.688 576.125c-3.326-2.63-6.861-4.34-10.688-6.125z"/><path fill="#F35E3D" d="M94 376c4.685 1.362 8.397 3.314 12.5 5.938 4.081 2.599 8.137 4.966 12.5 7.062v2l1.656.32c2.867.832 5.232 2.113 7.844 3.555l2.844 1.555c2.365 1.398 4.489 2.888 6.656 4.57 2.338 1.692 4.321 2.753 7 4 3.375-.594 3.375-.594 6-2l-1 4h-2v2c-3.368-.647-5.789-1.939-8.687-3.75-4.7-2.89-9.471-5.607-14.313-8.25v-2l-1.812-.437c-1.75-.45-3.475-.992-5.188-1.563v-2h-3v-2l-1.734-.371c-2.366-.657-4.338-1.566-6.516-2.692l-2.14-1.097L103 384v-2l-1.687-.312c-2.79-.83-4.927-2.031-7.313-3.688z"/><path fill="#F46141" d="m576 233 1 3-2 1-.5 2-.5 2-2 1-.5 2-.5 2-2 1c-.652 2.025-.652 2.025-1 4l-3-1q1.898-3.41 3.813-6.812l1.08-1.948c1.754-3.105 3.367-5.915 6.107-8.24m-12 18 2 1c-1.857 4.42-3.813 8.73-6 13h-2l-1 5h-2l-1 5h-2l-1 5h-2v3l-2 1-.312 1.875c-.993 3.069-2.91 3.7-5.688 5.125a159 159 0 0 1 4.059-7.715l1.17-2.08 1.208-2.142 1.198-2.131a893 893 0 0 1 2.314-4.084c.916-1.61 1.815-3.23 2.711-4.852L555 266h2l1-5h2l1-5h2z"/><path fill="#F35D3B" d="M641 382c1 3 1 3-.363 5.918l-1.95 3.27-1.925 3.292L635 397h-2l-1 5h-2l-1 5h-2l-1 5h-2l-1 5h-2l-.187 2.063c-.938 3.39-2.44 5.446-4.536 8.222-1.596 2.143-2.945 4.4-4.277 6.715l-2-1c1.25-2.606 2.624-5.12 4.063-7.625 1.016-1.77 2.024-3.549 2.937-5.375h2l1-5h2l1-5h2l.3-2.18c.794-3.2 2.044-5.219 3.888-7.945 3.159-4.784 5.918-9.667 8.55-14.758C639 383 639 383 641 382"/><path fill="#F35B39" d="m147 423 1 3-3 1-.354 2.243c-.645 2.752-1.475 4.494-2.974 6.866l-1.426 2.29-1.496 2.351q-1.448 2.303-2.89 4.61l-1.441 2.3c-1.879 3.099-3.604 6.272-5.308 9.47-1.38 2.323-3.175 4.003-5.111 5.87-.787 2.138-.787 2.138-1 4h-2c.552-4.74 2.714-8.278 5.188-12.25l1.222-2.003a266 266 0 0 1 8.496-13.013c1.267-1.856 1.267-1.856 2.094-4.734h2l1-5h2l.313-2.375C144 425 144 425 147 423m-28 44 2 1-1 4h-2zm-3 5 2 1-3 2z"/><path fill="#F46040" d="M530 222h2c-1.598 4.485-3.896 8.34-6.375 12.375q-1.17 1.917-2.336 3.836l-1.147 1.886c-1.764 2.94-3.454 5.92-5.142 8.903h-2l-1 5h-2l-1 5h-2l-.25 2.063c-.973 3.812-2.708 6.578-4.75 9.937l-2-4h2l1-5h2l1-5h2l1-5h2l.75-3.187c1.03-3.658 2.798-5.901 5.25-8.813 1.24-2.68 1.24-2.68 2-5h2l.125-2c1.262-4.327 3.805-7.718 6.875-11"/><path fill="#F46445" d="m722 184 1 2c-1.11 2.348-1.11 2.348-2.75 5.063l-1.61 2.722C717 196 717 196 714 197l-1 3h-2l-1 3h-2l-1 3c-1.89 1.754-1.89 1.754-4.25 3.563l-2.328 1.816c-2.457 1.644-4.643 2.63-7.422 3.621-1.172.425-2.344.85-3.55 1.29-1.242.44-2.484.88-3.763 1.335l-1.955.695q-2.365.84-4.732 1.68v-3l2.79-.96c12.566-4.55 28.5-12.417 34.648-24.977L717 189h2l.938-1.937C721 185 721 185 722 184"/><path fill="#F35E3D" d="M421 184c3.874 1.451 7.4 3.245 11.008 5.266l3.492 1.949 3.625 2.035 5.32 2.974 5.197 2.907c4.769 2.654 9.56 5.268 14.358 7.869 2.248-2.052 3.002-3.007 4-6h3c-.472 4.248-2.967 6.2-6 9-5.75-1.875-5.75-1.875-8-3v-2l-2.18-.312c-3.127-.763-5.236-1.965-7.945-3.688-2.684-1.697-4.853-2.993-7.875-4v-2l-1.625-.312c-5.768-1.67-11.608-5.022-16.375-8.688z"/><path fill="#F35C3B" d="m671.34 121.39 2.597.86 2.59.828A54 54 0 0 1 683 126v2l3 1v2l3 1v3h2c4.469 8.605 5.867 16.46 4 26l-3 1c-.073-2.56-.053-4.785.563-7.281.524-3.258.104-5.796-.5-9.031l-.59-3.239L691 140h-2l-.687-2.75c-1.502-3.717-3.144-4.915-6.313-7.25v-2l-1.562-.312C678 127 678 127 674.563 125.5c-2.944-1.24-5.43-2.025-8.563-2.5 3-2 3-2 5.34-1.61"/><path fill="#F35B39" d="M325 119h3v2l2.563.75c3.057 1.112 5.701 2.44 8.492 4.098 2.27 1.345 4.573 2.624 6.882 3.902l2.34 1.297L350 132v2l2.137.309c3.274.79 5.749 2.096 8.676 3.754l2.957 1.66L366 141v2l4 1v2c-4.953-.793-9.057-3.805-13.254-6.387-5.533-3.383-11.165-6.372-16.98-9.242-5.704-2.827-10.455-5.537-14.766-10.371z"/><path fill="#F46242" d="M173 43c9.266-.573 15.765.883 24 5v2h3c4 4.343 4 4.343 4 7h2c2.44 4.88 3.468 7.527 2 13-1.765-3.088-2-4.233-2-8l-2-1-.937-3L202 55l-3-1v-2l-1.875-.437C195 51 195 51 193 50v-2c-6.944-1.28-13.935-2.088-21-2z"/><path fill="#F35C3B" d="m246 372 1 3c-1.375 2.563-1.375 2.563-3 5l-1 2h-2l-1 5h-2l-1 5h-2l-1 5h-2l-1 5h-2l-.25 2.063c-.973 3.812-2.708 6.578-4.75 9.937l-2-4h2l1-5h2l1-5h2l1-5h2l.313-2.18c.762-3.127 1.964-5.236 3.687-7.945 1.697-2.684 2.993-4.853 4-7.875h2l.938-1.937C245 373 245 373 246 372"/><path fill="#F46242" d="m228 284 2 1-3 7h-2l-1 6h-2l-1 5h-2l-.312 2.188c-.97 3.962-2.574 6.772-5.563 9.562-3.13 3.313-5.029 7.229-7.125 11.25-1-3-1-3-.135-5.085l1.373-2.364 1.487-2.569 1.588-2.67 1.552-2.705c2.86-4.88 2.86-4.88 4.135-6.607h2l.313-2.187c.755-3.09 1.842-5.23 3.687-7.813h2l.313-2.187c.747-3.058 1.967-5.196 3.687-7.813m-25 42 2 1-2 5-3-1h2z"/><path fill="#F35E3D" d="m519 643 4 1 .625 3.75c1.532 6.955 4.761 13.803 9.066 19.48C534 669 534 669 534 671h2l.313 1.938L537 675l3 1c.688 2.063.688 2.063 1 4l-3-1v-2h-2c-4-4.353-4-4.353-4-8l-3-1c-4.935-7.633-7.615-16.303-10-25"/><path fill="#F45F3F" d="M162 514c1 2 1 2 1.375 5.125.48 2.97.97 4.981 2.063 7.688 3.214 8.131 3.869 16.265 3.75 24.937l-.002 2.746c-.03 4.608-.248 8.972-1.186 13.504h-1l-1-9h2c-.468-12.576-1.452-24.625-7.133-36.098-.902-1.98-1.529-3.75-1.867-5.902 1.438-1.75 1.438-1.75 3-3"/><path fill="#F35634" d="m601 180 4 2-1 8h-2l-1 5h-2l-1 5h-2l-1 5h-2l-.187 2c-1.122 4.14-3.092 7.678-5.813 11-2.168 1.238-2.168 1.238-4 2l.938-1.812c1.164-2.278 1.164-2.278 2.062-5.188h2l.688-2.5c1.561-4.165 3.54-8 6.312-11.5h2l.332-2.184c.92-3.882 2.836-6.97 4.805-10.414 1.15-2.39 1.15-2.39.008-4.71z"/><path fill="#F35C3B" d="M664 120v2c-.797.182-1.593.364-2.414.55-8.13 1.872-8.13 1.872-15.586 5.45l-1 2h-3l-.875 1.75L638 138h-2l-.375 2.875C635 144 635 144 633 146c-.93-2.519-1.14-3.642-.145-6.184C639.65 128.32 639.65 128.32 646 125l1.816-1.035C653.192 121.03 657.836 120 664 120"/><path fill="#F46242" d="m641 665 1 3c-1.812 2.688-1.812 2.688-4 5h-2l-1 4h-2v2h-3l-.75 1.938C628 683 628 683 625.938 683.563L624 684l-1 3c-1.777 1.168-1.777 1.168-3.937 2.188l-2.153 1.042C615 691 615 691 613 691v-2c2.718-1.96 5.49-3.71 8.402-5.367 7.637-4.8 13.902-11.711 19.598-18.633"/><path fill="#F35835" d="M592 343c0 3.333-.609 4.423-2.25 7.25l-1.383 2.39L587 355l-1.117 2.11c-2.548 4.778-2.548 4.778-5.883 5.89 2.668-7.52 6.692-14.085 12-20m-13 20c1 3 1 3 0 6h-2l-1 5h-2l-1 5h-2l-1 5h-2c.689-3.389 1.987-6.18 3.563-9.25l1.378-2.703L574 370h2l1-5h2z"/><path fill="#F35B39" d="m554 182 1 2-1 3h-2l-1 5h-2l-1 5h-2l-1 5h-2l-1 5h-2l-1 5h-2l-.312 2.313c-.732 2.858-1.458 3.844-3.688 5.687l-1-2 1-3h2l1-5h2l1-5h2c.26-.865.52-1.73.79-2.621 1.227-3.427 2.735-6.311 4.585-9.441l1.773-3.036c1.79-2.803 3.725-5.349 5.852-7.902"/><path fill="#F46141" d="m159 584 1 3c-1.812 3.188-1.812 3.188-4 6h-2l-1 3h-2l-1 3h-2l-1 3h-2l-.648 1.797c-1.825 2.973-3.893 3.875-6.977 5.453l-3.04 1.578L132 612v-3c2.344-1.762 2.344-1.762 5.5-3.687 6.684-4.29 13.178-8.88 16.5-16.313h2l.938-1.937C158 585 158 585 159 584M216 132c1.87 1.071 3.484 2.287 5.164 3.637 2.524 1.874 5.255 3.045 8.137 4.273C231 141 231 141 233 145l-14-7v-2h-4v-2c-3.208.993-6.09 2.047-9.062 3.625-2.978 1.394-4.707 1.66-7.938 1.375 5.604-4.78 10.408-8.066 18-7"/><path fill="#F35A38" d="m218 288 1 3-1 2h-2l-.312 2.188c-.756 3.09-1.843 5.23-3.688 7.812h-2l-1 5h-2l-1 5h-2l-1 5h-3v-2h2l1-5h2l.191-1.988c1.14-4.245 3.378-7.53 5.746-11.2l1.381-2.193c3.376-5.313 3.376-5.313 5.682-7.619"/><path fill="#F35D3C" d="m296 288 1 3-3 1-1 5h-2l-1 5h-2l-1 5h-2l-.25 2.063c-.973 3.812-2.708 6.578-4.75 9.937l-2-4h2l1-5h2l1-5h2l1-5h2l.125-2.062c1.249-4.193 3.915-6.797 6.875-9.938"/><path fill="#F35E3D" d="m629 264 1 3-1 2h-2l-1 5h-2l-1 5h-2l-.75 3.188c-1.03 3.657-2.798 5.9-5.25 8.812-1.24 2.68-1.24 2.68-2 5l-2-4 1.875-2.187c1.962-2.597 3.078-4.76 4.125-7.813h2l.313-1.625c.868-3 2.243-5.613 3.687-8.375h2l.313-2.312c.73-2.859 1.457-3.845 3.687-5.688"/><path fill="#F46242" d="M347 294h3c0 2 0 2-1.375 3.5L347 299l-2 2c.875-4.75.875-4.75 2-7m-4 7 2 1-3 4zm-3 5 2 1q-.937 2.126-1.875 4.25l-1.055 2.39c-.974 2.149-2 4.258-3.07 6.36h-2l-.125 2.188c-1.259 4.045-3.51 5.307-6.875 7.812 1.199-3.083 2.477-6.063 4-9h2l1-5h2l1-5h2z"/><path fill="#F35431" d="M115 55c1.094 3.283.892 4.086.063 7.313-2.338 10.94-1.09 21.796.937 32.687l-3-1c-1.822-7.992-2.159-15.336-1.687-23.5l.146-3.242c.388-7.799.388-7.799 1.541-11.258z"/><path fill="#F46040" d="m156 271 1 2-2 1-.5 2-.5 2-2 1a101 101 0 0 0-2 6h-2l-1 5h-2l-.25 2.25c-.89 3.262-2.235 4.56-4.75 6.75l-1-2c.938-2.125.938-2.125 2-4h2l1-5h2l1-5h2l.25-2.125c.929-3.56 2.553-5.945 4.75-8.875zm-18 28 2 1-3 2z"/><path fill="#F45F3E" d="m664.625 218.938 2.43.013q2.972.02 5.945.049v2c-3.188 1.594-6.629 1.102-10.125 1.063l-2.285-.014q-2.795-.02-5.59-.049l-1 4h-2l-1 5h-3v-2h2l1-5h2l.375-1.937L654 220c3.31-1.655 6.991-1.1 10.625-1.062"/><path fill="#F35835" d="M38 541h1v25h2l1 8c-2.025-1.933-3.421-3.632-5-6l1-1-.937-3.062c-1.194-4.443-1.293-8.743-1.313-13.313l-.027-2.164c.03-5.213.03-5.213 2.277-7.461"/><path fill="#F35C3A" d="m433 385 1 3-1 2h-2l-1 5h-2l-1 5h-2l-.187 2c-1.134 4.187-3.41 7.426-5.813 11l-2-1 1-4h2l1-5h2l1-5h2l1-5h2l.313-2.312c.73-2.859 1.457-3.845 3.687-5.688"/><path fill="#F46546" d="M650 313c3.495 1.308 6.58 2.849 9.75 4.813 4.682 2.86 9.435 5.558 14.25 8.187v4h-2v-3l-2.512-.723c-4.083-1.495-7.59-3.473-11.3-5.714l-2.061-1.198c-5.005-2.999-5.005-2.999-6.127-6.365"/><path fill="#F35E3D" d="m542 291 1 2-2-1zm-3 2 2 1-1 4h-2zm-3 5 2 1c-.812 2.938-.812 2.938-2 6l-3 1-.125 2.5c-1.447 5.79-4.934 10.206-9.875 13.5l7-14h2l1-5h2z"/><path fill="#F46546" d="M336 135c9.446 3.606 18.917 8.934 27 15v2c-3.841-1.423-7.235-3.215-10.75-5.312-4.47-2.659-8.976-5.178-13.605-7.547C337 138 337 138 336 135"/><path fill="#F35D3B" d="m196 197 1 3c-1.16 2.207-1.16 2.207-3 5q-1.07 1.845-2.121 3.7l-2.316 3.988-1.159 2.048c-3.54 6.04-3.54 6.04-7.404 7.264l1-4h2l2-7h2v-3h2l.75-3.25c1.249-3.746 2.275-5.27 5.25-7.75"/><path fill="#F46140" d="m146 15 2 1v2h-3v2h-4l-.754 1.762c-1.423 2.555-2.997 4.116-5.184 6.05l-2.09 1.895L131 31l-3-1 1-2h2l1-3h2l1-3c2.434-1.86 2.434-1.86 5.438-3.75l2.996-1.922zm-20 16 2 1-2 1z"/><path fill="#F4684A" d="M436 316c4.972 1.764 9.434 4.394 14 7v2l2 .188c4.187 1.133 7.426 3.408 11 5.812-1.578.727-1.578.727-4 1a65 65 0 0 1-6.75-3.625l-1.878-1.12a476 476 0 0 1-3.688-2.23 239 239 0 0 0-4.344-2.568c-5.212-3.074-5.212-3.074-6.34-6.457"/><path fill="#F45F3F" d="M558 383h2c-1.747 4.925-4.323 9.312-6.937 13.813l-1.342 2.388-1.31 2.256-1.184 2.062L548 405h-3l.875-1.687c1.166-2.398 2.159-4.829 3.125-7.313h2l1-5h2l1-5h2z"/><path fill="#F35836" d="M557 618c1.045 3.135.931 4.272.438 7.438-.718 6.07.326 11.618 1.562 17.562-1.937-.687-1.937-.687-4-2-1.235-3.733-1.195-7.59-1.25-11.5l-.078-3.344c.361-3.474 1.327-5.334 3.328-8.156"/><path fill="#F35835" d="M298 498c5.285 1.49 10.609 3.653 15 7l1 4-8-4v-2l-8-1-2 5-3-1c1.186-3.375 2.276-5.647 5-8"/><path fill="#F46444" d="m130 449 2 1c-.631 3.156-1.721 5.473-3.437 8.188l-1.31 2.105C126 462 126 462 124 463c-.652 2.025-.652 2.025-1 4h-2c.548-4.618 2.59-7.981 5.063-11.812l1.142-1.811q1.39-2.193 2.795-4.377m-11 18 2 1-1 4h-2zm-3 5 2 1-3 2z"/><path fill="#F46F52" d="M727 131c5.124 9.773 4.208 20.295 4 31l-2-1-1-24h-2z"/><path fill="#F3512C" d="m178.875 8.813 3.336.001c4.75.026 9.141.129 13.789 1.186v1l-2.488-.048q-4.648-.076-9.298-.117c-1.98-.022-3.96-.06-5.939-.099-7.035-.053-13.196.36-19.914 2.517-2.436.77-4.85 1.286-7.361 1.747l-1-2c9.335-3.971 18.85-4.301 28.875-4.187"/><path fill="#F46141" d="M169 45v2l-2.5 1.063c-5.64 2.82-10.977 7.08-13.5 12.937h-3l1-4h2l.75-1.77c1.435-2.56 3.017-4.025 5.25-5.917l2.125-1.825C164.146 45.09 164.911 45 169 45"/><path fill="#F46040" d="m480 396 1 3c-1.074 2.05-1.074 2.05-2.687 4.313l-1.692 2.402L475 408l-2.125 3.375c-1.774 2.484-3.325 3.986-5.875 5.625l1-4h2l1-5h2l.25-2.125c.929-3.56 2.553-5.945 4.75-8.875z"/><path fill="#F35A38" d="M610 296c1 3 1 3 .223 4.824L607 306h-2l-1 5h-2l-1 5h-3c1.464-3.949 3.318-7.488 5.438-11.125l1.808-3.133c1.45-2.268 2.756-3.97 4.754-5.742"/><path fill="#F46242" d="m207 81 2 3c-.875 3.688-.875 3.688-2 7h-2c.458-3.47.891-6.674 2-10m-4 10 2 1c-.75 2.438-.75 2.438-2 5-2.125.813-2.125.813-4 1l1-3h2zm-6 7 2 1-2 3h-3v2l-5 1c1.116-3.347 1.513-3.62 4.438-5.25z"/><path fill="#F35D3C" d="m277 320 1 3-1.305 1.152c-2.092 2.28-3.372 4.678-4.82 7.41l-1.57 2.942c-.78 1.492-1.552 2.99-2.305 4.496h-2l-1 5h-2l3-9h2l1-5h2l.188-1.625c1.192-3.487 3.374-5.624 5.812-8.375"/><path fill="#F46546" d="M326 196q3.566 1.87 7.125 3.75l2.016 1.055c4.124 2.183 8.106 4.412 11.859 7.195v2c-3.628-1.375-6.98-2.998-10.375-4.875l-2.887-1.594A798 798 0 0 1 324 198z"/><path fill="#F35634" d="m200 332 2 1-7 13h-2c.659-3.57 2.162-6.177 4.063-9.25l1.66-2.703zm-9 14h2l-1 5h-2zm-3 5h2l-1 5h-2zm-3 5 2 1-2 1z"/><path fill="#F35633" d="M597 138h2v32h2v4h-2c-4.054-11.933-2.905-23.628-2-36"/><path fill="#F46343" d="M325 119h3v2l2.563.75c5.229 1.902 10.235 4.552 14.437 8.25v2c-7.777-2.193-14.705-5.851-20-12z"/><path fill="#F4603F" d="m79 488 2 1c-2.53 3.796-4.78 4.446-9 6h-3v2h-3v2h-3v2l-4 1v-2a100 100 0 0 1 6.063-4.437c.56-.396 1.122-.79 1.7-1.198 3.917-2.69 7.76-4.749 12.237-6.365m-22 14 2 1-2 1z"/><path fill="#F45F3E" d="m544 680 2 1v2h3v2l1.707.348c2.57.73 4.649 1.79 6.98 3.09l2.387 1.308C562 691 562 691 563 693c-8.22-1.644-15.336-5.9-21-12z"/><path fill="#F35734" d="m169 386 1 2c-1.26 2.985-3.032 5.719-4.687 8.5l-1.358 2.379-1.342 2.277-1.225 2.088c-1.594 2.016-3.035 2.782-5.388 3.756l.875-1.687c1.166-2.398 2.159-4.829 3.125-7.313h2l1-5h2l.313-2.375C166 388 166 388 169 386"/><path fill="#F35735" d="m672 330 1 2c-.777 1.945-.777 1.945-1.937 4.125l-1.153 2.195L669 340h-2l-1 5h-2l-1 5-3-1c8.03-15.03 8.03-15.03 12-19"/><path fill="#F35A39" d="M695 210h2c-1.044 3.003-1.807 3.894-4.645 5.45l-3.168 1.238-3.144 1.261A49 49 0 0 1 678 220l1-3a90 90 0 0 1 7.5-3.125c4.59-1.402 4.59-1.402 8.5-3.875"/><path fill="#F35735" d="M651 635h1c.619 7.733-1.39 14.742-4 22l-2 2c-1.291-3.571-.706-5.303.875-8.687 2.104-4.873 2.707-9.045 3.125-14.313z"/><path fill="#F46344" d="m54 505 2 1-3 6h-3l1-4h2zm-6 7h2v4l-2 1-1.437 3.5L45 524l-3 1c1.687-4.498 3.817-8.729 6-13"/><path fill="#F46546" d="M468 201h3c-.472 4.248-2.967 6.2-6 9-4.43-1.208-6.981-2.517-10-6l2-1c2.475 1.114 4.679 2.582 7 4 2.248-2.052 3.002-3.007 4-6"/><path fill="#F35532" d="M373 146a263 263 0 0 1 13.25 7l1.89 1.04c3.132 1.767 4.83 2.915 6.86 5.96l-5-1v-2l-2.437-.687c-3.749-1.381-6.982-3.158-10.438-5.137-2.308-1.277-4.64-2.294-7.125-3.176z"/><path fill="#F46040" d="m648 232 1 3a93 93 0 0 1-4.437 7.188l-1.315 1.982A628 628 0 0 1 640 249l-2-1a250 250 0 0 1 4.438-8.562c.41-.765.822-1.53 1.246-2.317 1.26-2.03 2.558-3.517 4.316-5.121"/><path fill="#F35E3D" d="M198 323c0 3.59-.93 4.861-2.812 7.875l-1.583 2.555L192 336a1386 1386 0 0 0-3 5l-2-1 1-4h2l1-5h2l.25-2.312c.896-3.212 1.966-3.982 4.75-5.688"/><path fill="#F35D3C" d="m126 531 3 1v2h2c2.76 4.8 3.637 8.558 4 14l-1 2-2-1c-.492-2.074-.492-2.074-.875-4.687-.845-4.762-2.253-7.484-5.125-11.313z"/><path fill="#F46647" d="m349 80 1 3-2 1-.5 2-.5 2-2 1c-.652 2.025-.652 2.025-1 4h-2c.578-4.77 2.46-7.998 5-12zm-9 13 2 1-2 5-2-2zm-3 6 2 1-3 2z"/><path fill="#F4694B" d="M249 554c2.277.996 2.277.996 4.938 2.438 3.806 2.105 3.806 2.105 8.062 2.562l1 3c-1.562.75-1.562.75-4 1-4.473-2.196-8.192-4.77-12-8z"/><path fill="#F45F3E" d="M84 527v2l-2.437 1.938c-2.8 1.872-2.8 1.872-3.563 5.062h-2l-2 9-2-3c1.108-5.418 5.465-15 12-15"/><path fill="#F35734" d="m115 476 1 3-3 1-.375 2.938L112 486c-3.215 1.607-6.436 1.057-10 1v-2l3.438-.375L109 484l1-2h2l.375-2.437L113 477z"/><path fill="#F45F3F" d="m169 371 1 2a133 133 0 0 1-4.437 7.625l-1.315 2.14A924 924 0 0 1 161 388l-2-1 1-4h2l.313-2.312c.758-2.967 1.452-3.71 3.687-5.688 1.018-1.32 2.022-2.65 3-4"/><path fill="#F35D3C" d="M632 163h3q1.007 1.934 2 3.875l1.125 2.18C639 171 639 171 639 173h2c1.625 1.375 1.625 1.375 3 3v2l2 1c-4.273-.475-6.274-2.843-9-6a88 88 0 0 1-2-5l-2-1c-.625-2.062-.625-2.062-1-4"/><path fill="#F46C4E" d="M198 140c-9.828 2.023-9.828 2.023-14.125 1.938-2.97.064-4.317.692-6.875 2.062l-2-1 1-3c2.915-.39 5.831-.762 8.75-1.125l2.5-.34 2.422-.293 2.222-.285c2.5.051 3.97.789 6.106 2.043"/><path fill="#F4684A" d="M299 509h5l2 4-6-3-.187 2.75c-.997 3.988-2.462 5.016-5.813 7.25 1.45-3.791 3.152-7.387 5-11m-6 11v3Z"/><path fill="#F35532" d="m576 496 1 3-1 2h-2l-1 5h-2l-1 5h-3v-2h2l.25-2.062c.985-3.86 2.613-6.57 4.75-9.938z"/><path fill="#F35E3D" d="m178 487 1 3-3 1-1 5h-2l-.375 2.375C172 501 172 501 170 503l-1-4h2l1-5h2l.313-2.375C175 489 175 489 178 487M442 370l1 3-1 2h-2l-1 5h-2l-1 5-3-2q1.684-2.69 3.375-5.375l1.898-3.023C440 372 440 372 442 370"/><path fill="#F46445" d="m196 457 1 3c-1.11 2.156-1.11 2.156-2.75 4.5l-1.61 2.344A41 41 0 0 1 188 472l-1-3 1-2h2l.188-1.625c1.192-3.487 3.374-5.624 5.812-8.375"/><path fill="#F46748" d="M502 144c4.167.473 6.929 1.047 10 4v2l-2.312-.937A111 111 0 0 0 504 147l-3 2-1-2zm-3 5 2 1-3 2z"/><path fill="#F35835" d="M162 514c1 2 1 2 1.438 5.25.445 3.728.445 3.728 1.687 7.063C166 529 166 529 165 531c-2.97-4.385-4.46-8.985-6-14z"/><path fill="#F46141" d="M521 323h3c-1.199 3.083-2.477 6.063-4 9h-2l-1 5h-2l2-7h2l.438-2.375C520 325 520 325 521 323"/><path fill="#F46647" d="M249 152c2.355 1.074 2.355 1.074 5.188 2.688l2.968 1.675L260 158l2.281 1.293q2.365 1.345 4.719 2.707l-1 2a8676 8676 0 0 1-7.812-4.375l-2.237-1.25c-1.068-.6-1.068-.6-2.158-1.21l-1.984-1.112c-1.64-.955-3.229-2-4.809-3.053z"/><path fill="#F46B4E" d="M397 555c3.798 1.452 7.495 2.929 11 5 .875 2.188.875 2.188 1 4-4.972-1.764-9.434-4.394-14-7z"/><path fill="#F46445" d="M231 545c4.691.502 7.56 1.682 11.375 4.438l2.648 1.87L247 553v2l-4-1v-2l-2.062-.75c-3.507-1.492-6.654-3.318-9.938-5.25z"/><path fill="#F35836" d="m281 542 1 2c-.996 2.164-.996 2.164-2.437 4.625l-1.434 2.477L277 553h-2l-2 4c0-3.204.743-5.094 2-8h2l.313-2.375C278 544 278 544 281 542"/><path fill="#F35B39" d="m594 323 1 3h-2l-.371 1.734c-.657 2.366-1.566 4.338-2.692 6.516l-1.097 2.14L588 338l-2-1v-3h2l.313-1.625c.875-3.025 2.16-5.625 3.687-8.375zM564 253c1 3 1 3 .11 5.227-.45.791-.898 1.583-1.36 2.398l-1.328 2.414C560 265 560 265 557 266l1-5h2l1-5h2zm-9 13 2 1-2 1z"/><path fill="#F46243" d="M219 417h2c-1.566 4.308-3.683 8.062-6 12h-3l1-4h2l1-5h2z"/><path fill="#F46F52" d="M308 188c4.651-.476 6.997.926 10.813 3.5l2.957 1.969L324 195l-1 2c-5.11-2.51-10.083-5.132-15-8z"/><path fill="#F46A4C" d="M606 117h2v3l-2 1-1.437 3.375c-1.319 3.059-2.054 4.594-4.563 6.625 0-3.463.866-5.07 2.438-8.125l1.37-2.695C605 118 605 118 606 117"/><path fill="#F35B3A" d="M165 571c1 3 1 3 .004 5.48l-1.441 2.707-1.434 2.731L161 584l-2-1 .875-2.125c1.18-2.911 1.18-2.911 2.125-6.125 1-2.75 1-2.75 3-3.75"/><path fill="#F4684A" d="M309 265h2c-1.566 4.308-3.683 8.062-6 12l-2-4h2l1-5h2z"/><path fill="#F46647" d="m565 605 2 1c-1.133 2.266-2.532 4.106-4.062 6.125l-1.66 2.195L560 616l-2-4h2l.25-1.812c.955-2.785 2.321-3.621 4.75-5.188"/><path fill="#F46C4E" d="m539 416 1 3a374 374 0 0 1-4 6c-.782 2.728-.782 2.728-1 5-2-2-2-2-2.125-4.625L533 423h2l.313-2.375C536 418 536 418 539 416"/><path fill="#F46444" d="M424 400c1 3 1 3-.215 5.48l-1.723 2.707-1.714 2.731L419 413l-2-1 1-4h2l1-5h2z"/><path fill="#F4694B" d="M494 370h2v3l-3 1zm-2 4c1.125 3.75 1.125 3.75 0 6h-2v3l-4 1 1.438-2.25c1.625-2.575 1.625-2.575 2.125-5L490 375z"/><path fill="#F35937" d="m505 352 2 1-1.059 1.61-1.378 2.14-1.372 2.11c-1.288 2.069-1.288 2.069-1.664 4.343L501 365l-3 1c1.173-3.97 2.518-6.728 5-10v-3zm-9 14 2 1-2 1z"/><path fill="#F46141" d="M496 153h3c-1.199 3.083-2.477 6.063-4 9h-2v3l-3 1c1.687-4.498 3.817-8.729 6-13"/><path fill="#F45F3E" d="M217 511h2c-.944 4.91-2.515 8.964-6.687 11.875L210 524c1.457-2.968 3.012-5.864 4.625-8.75l1.352-2.422z"/><path fill="#F46445" d="M617 422h2c-1.557 4.671-4.084 8.087-7 12l-2-1a43.3 43.3 0 0 1 7-11"/><path fill="#F35C3B" d="M563 392c1 3 1 3 .145 4.754-4.424 6.006-4.424 6.006-8.145 7.246l.938-1.812c1.164-2.278 1.164-2.278 2.062-5.188h2l.375-1.937L561 393z"/><path fill="#F35937" d="m204 183 4 2-2 1-2-1-1 4h-2l-1 5-3 1v-3h2l1-4h2l.438-1.937C203 184 203 184 204 183"/><path fill="#F46242" d="M335 103h2c-.706 3.669-2.277 6.705-4 10h-3c1.144-3.873 2.233-7.003 5-10"/><path fill="#F35734" d="M617 105c0 3.932-1.394 5.164-4 8h-2l-1 4h-3l1-4h2v-2c1.531-1.508 1.531-1.508 3.5-3.125l1.969-1.633z"/><path fill="#F35735" d="M227 496c0 3.413-.669 4.395-2.5 7.188l-1.406 2.167L222 507c-1-3-1-3 .25-6.062C224 498 224 498 227 496m-8 11 2 1-3 2z"/><path fill="#F46040" d="M585 342v2l-2 1a79 79 0 0 0-2.625 4.563l-1.352 2.503L578 354l-2-2 1-3h2l.313-2.375c.861-3.29 2.155-4.625 5.687-4.625"/><path fill="#F46D4F" d="M588 564q2.688-.04 5.375-.062l3.023-.036C599 564 599 564 601 565v2l-13-1z"/><path fill="#F46A4C" d="M417 497c4.108 1.45 7.503 3.398 11 6v2c-3.59-1.334-6.846-2.81-10-5z"/><path fill="#F46444" d="M228 402c1 3 1 3 .004 5.262l-1.441 2.425-1.434 2.45L224 414l-2-4h2l1-5h2z"/><path fill="#F35531" d="M113 344c0 3.11-.467 4.394-1.812 7.125l-1.02 2.133C109 355 109 355 106 356c1.55-4.39 3.67-8.67 7-12m-9 12 2 1-2 1z"/><path fill="#F57053" d="M694 148h1c1.016 4.63.838 8.345 0 13l-3 1c-.14-4.912.774-9.27 2-14"/><path fill="#F46141" d="m203 445 1 3-3 1-.375 2.375C200 454 200 454 198 456l-1-4h2l.313-2.375C200 447 200 447 203 445"/><path fill="#F46B4D" d="M444 187c1.299.568 2.589 1.155 3.875 1.75l2.18.984c2.282 1.485 2.949 2.77 3.945 5.266h-2v-2l-1.625-.312c-3-.869-5.613-2.244-8.375-3.688z"/><path fill="#F4694A" d="M41 576c3.826 1.451 5.223 3.358 7 7v3c-3.214-1.108-3.991-1.985-5.75-5-1.25-3-1.25-3-1.25-5"/><path fill="#F46242" d="m582 487 1 3c-.996 1.824-.996 1.824-2.437 3.688l-1.434 1.886L578 497l-2-1c1.312-3.937 2.92-6.227 6-9"/><path fill="#F45F3E" d="m610 434 1 3-1 2h-2l-1 4h-3c1.527-3.436 3.6-6.12 6-9"/><path fill="#F46242" d="m159 388 1 3c-.996 1.824-.996 1.824-2.437 3.688l-1.434 1.886L155 398l-2-1 1-4h2l.938-1.937C158 389 158 389 159 388"/><path fill="#F46546" d="M319.125 383.938 322 385v2l3 1v2l-4-1v-2l-1.812-.375C317 386 317 386 314 384c2-1 2-1 5.125-.062"/><path fill="#F57458" d="m577.75 563.938 2.422.027L582 564c-2.495 2.495-3.673 2.36-7.125 2.625l-2.758.227L570 567l-1-2c2.995-.872 5.636-1.108 8.75-1.062"/><path fill="#F4603F" d="m184 477 1 3c-1.75 3.188-1.75 3.188-4 6h-3c1.312-3.937 2.92-6.227 6-9"/><path fill="#F35937" d="m464 423 1 3c-1.75 3.188-1.75 3.188-4 6h-3v-2h2l.875-2.937C462 424 462 424 464 423"/><path fill="#F46D50" d="M354 283h2v3l-2 1-.312 1.875c-.993 3.069-2.91 3.7-5.688 5.125 1.45-4.108 3.398-7.503 6-11"/><path fill="#F46A4C" d="m469 189 1 2h-2l-1 4h-2l-1 4-3-1 1.438-1.812c1.727-2.192 1.727-2.192 2.562-5.188 2.063-1.187 2.063-1.187 4-2"/><path fill="#F46648" d="M727 171h1c.64 5.115-1.595 8.673-4 13l-2-2c.188-2.5.188-2.5 1-5l3-2c.724-2.06.724-2.06 1-4"/><path fill="#F46647" d="M236 144q2.257 1.426 4.5 2.875l2.531 1.617L245 150v2c-3.594-1.335-6.755-2.96-10-5z"/><path fill="#F46040" d="m38 562 1 4h2l1 8c-2.025-1.933-3.421-3.632-5-6l1-1c.04-1.666.043-3.334 0-5"/><path fill="#F35D3C" d="m268 549 1 3-1 2h-2l-1 4h-3v-2h2l.875-2.375C266 551 266 551 268 549"/><path fill="#F46040" d="m297 499 3 2-3 2c-1.192 2.05-1.192 2.05-2 4l-2-1c1.074-2.915 1.778-4.778 4-7M212 430l1 3c-1.75 3.188-1.75 3.188-4 6h-3l1-4h2l.938-1.937C211 431 211 431 212 430"/><path fill="#F46444" d="M130 313h2c-.155 2.71-.482 4.466-2.402 6.445-1.496 1.232-3.044 2.398-4.598 3.555 1.333-3.588 2.83-6.836 5-10"/><path fill="#F46F52" d="M547 280h2v3l-2 1-.312 1.875c-.993 3.069-2.91 3.7-5.688 5.125 1.813-3.777 3.907-7.373 6-11"/><path fill="#F46040" d="M373 146c3.62 1.727 6.876 3.477 10 6l-1 2-3.187-1.875c-2.863-1.64-5.705-2.995-8.813-4.125z"/><path fill="#F35D3C" d="m277 534 1 2c-.996 1.945-.996 1.945-2.437 4.125l-1.434 2.195L273 544l-2-2 1-3h2l.938-1.937C276 535 276 535 277 534"/><path fill="#F4694A" d="M552 407h3c-.125 2.25-.125 2.25-1 5-3.062 2.313-3.062 2.313-6 4l.875-1.687c1.166-2.398 2.159-4.829 3.125-7.313"/><path fill="#F46E51" d="M387 549c2.031.934 4.035 1.932 6 3v4l-1-2a89 89 0 0 0-4-2l-3-2z"/><path fill="#F46A4C" d="M165 531h2c1.158 3.473 1.069 6.36 1 10h-2z"/><path fill="#F46647" d="m317 508 9 5-1 3v-2l-7-2z"/><path fill="#F35E3D" d="m545 406 1 3-3 1-1 5h-3v-2h2l.313-2.375C542 408 542 408 545 406"/><path fill="#F46647" d="M136 303h2c-.176 2.38-.697 3.702-2.402 5.379-1.504 1.242-3.05 2.435-4.598 3.621 1.5-3.114 3.082-6.122 5-9"/><path fill="#F46B4D" d="m544 680 2 1v2h3l1 4c-3.366-1.443-5.51-3.333-8-6zM527.5 501.688c2.797 1.468 3.434 2.405 4.5 5.312-3.46-1.25-6.147-2.675-9-5 2-1 2-1 4.5-.312"/><path fill="#F35734" d="m93 486-1 2c-2.066.414-2.066.414-4.562.625l-2.504.227L83 489c1-2 1-2 4.438-3.187C91 485 91 485 93 486"/><path fill="#F46748" d="m591 472 1 3c-1.937 3.188-1.937 3.188-4 6l-2-3z"/><path fill="#F46343" d="m451 445 1 3-4 3-1-2zm-5 6 2 1-3 2z"/><path fill="#F46748" d="M415 415h2c-1.186 3.375-2.276 5.647-5 8l-1-3 1-2h2zM499 274h2c-1.186 3.375-2.276 5.647-5 8l-1-3 1-2h2z"/><path fill="#F35734" d="M693 161c.885 2.478 1.116 3.66.25 6.188C692 169 692 169 689 170c1.059-3.403 2.009-6.014 4-9"/><path fill="#F4684A" d="m126 531 3 1v2h2l1 5c-3.754-1.251-4.24-2.565-6-6z"/><path fill="#F46445" d="m554 518 3.375 1c3.32 1.089 3.32 1.089 5.625 1v3h-5v-2l-4-1zM333 321l1 2-6 7c0-3.16.382-4.36 2-7z"/><path fill="#F4684A" d="M580 223h3c-.187 1.813-.187 1.813-1 4-2.562 1.75-2.562 1.75-5 3 1.875-4.75 1.875-4.75 3-7"/><path fill="#F35735" d="m477 189 1 2c-1.312 2.625-1.312 2.625-3 5h-2c.313-2.375.313-2.375 1-5zm-6 7 2 1-2 1z"/><path fill="#F46445" d="M209 186c3.403 1.059 6.014 2.009 9 4v2c-3.083-1.199-6.063-2.477-9-4z"/><path fill="#F46A4C" d="m617 686 4 2c-5.75 3-5.75 3-8 3v-2c2-1.625 2-1.625 4-3"/><path fill="#F46546" d="m128 613-2 2h-4l-1 2c.375-1.937.375-1.937 1-4 2.49-1.245 3.41-.777 6 0M271 559c1.044 3.133.934 3.99 0 7l-3-2c.375-1.937.375-1.937 1-4z"/><path fill="#F46140" d="M538 510c2.763.523 5.326 1.109 8 2l1 4-9-5z"/><path fill="#F35C3B" d="m191 464 1 3c-1.437 2.688-1.437 2.688-3 5l-2-1 1-4h2z"/><path fill="#F35D3C" d="m305 368 1 3-2 3h-2l-1 2a85 85 0 0 1 2-7z"/><path fill="#F46242" d="M592 343c0 3.576-1.088 5.053-3 8l-3-1z"/><path fill="#F46748" d="m536 212 1 3c-1.437 2.688-1.437 2.688-3 5l-2-2 1-3h2z"/><path fill="#F57F66" d="m601 180 4 2c-.75 4.75-.75 4.75-3 7l.625-2.25c.42-3.073-.006-4.178-1.625-6.75"/><path fill="#F57054" d="m203 135 4 2c-3.135 1.858-5.375 2.201-9 2z"/><path fill="#F35836" d="M165 45h4v2l-7 3c1.875-3.875 1.875-3.875 3-5"/><path fill="#F46242" d="M155 11c2.063.438 2.063.438 4 1-4.43 3.077-4.43 3.077-7.312 2.688L150 14l1.938-.937c1.998-.898 1.998-.898 3.062-2.063"/><path fill="#F8A190" d="m598 696 2 1ZM102 521l2 1ZM226 273l2 1Z"/></svg>